<svg version="1.1" id="Ñëîé_1" xmlns="http://www.w3.org/2000/svg" xmlns:xlink="http://www.w3.org/1999/xlink" x="0px" y="0px" width="379.765px" height="160.898px" viewBox="59.293 125.5 379.765 160.898" enable-background="new 59.293 125.5 379.765 160.898" xml:space="preserve">
<rect x="0" display="none" fill="#B9DB1A" width="500" height="400"></rect>
<path display="none" fill="#A5C706" d="M432.02,291.219H64.115c-2.662,0-4.82-2.158-4.82-4.82l0,0c0-2.664,2.159-4.821,4.82-4.821
	H432.02c2.663,0,4.821,2.157,4.821,4.821l0,0C436.841,289.061,434.683,291.219,432.02,291.219z"></path>
<g>
	<path fill="#4B5543" d="M374.502,249.51v35.33c0,0.86-0.838,1.559-1.869,1.559c-1.033,0-1.87-0.697-1.87-1.559v-35.33H374.502z"></path>
	<path fill="#4B5543" d="M389.442,249.51v35.33c0,0.86-0.838,1.559-1.87,1.559c-1.033,0-1.87-0.697-1.87-1.559v-35.33H389.442z"></path>
	<path fill="#3C4736" d="M410.193,249.51v35.33c0,0.86-0.838,1.559-1.87,1.559c-1.033,0-1.87-0.697-1.87-1.559v-35.33H410.193z"></path>
	<path fill="#3C4736" d="M425.668,249.51v35.33c0,0.86-0.838,1.559-1.87,1.559s-1.87-0.697-1.87-1.559v-35.33H425.668z"></path>
	<path fill="#F5F1E9" d="M381.11,246.48L381.11,246.48c11.456,0,20.743-9.287,20.743-20.744V206.27
		c0-11.457-9.287-20.744-20.743-20.744l0,0c-11.456,0-20.743,9.287-20.743,20.744v19.467
		C360.366,237.193,369.654,246.48,381.11,246.48z"></path>
	<path fill="#F5F1E9" d="M439.058,229.318L439.058,229.318c0-17.332-14.05-31.381-31.383-31.381H391.75
		c-17.334,0-31.384,14.049-31.384,31.381l0,0c0,17.334,14.05,31.384,31.384,31.384h15.925
		C425.008,260.702,439.058,246.652,439.058,229.318z"></path>
	<g>
		<path fill="#5B6452" d="M377.307,185.917c-2.698,2.201-7.18,3.132-11.896,2.14c-4.715-0.992-8.44-3.65-10.023-6.752
			c2.698-2.201,7.181-3.132,11.896-2.14C371.996,180.157,375.725,182.815,377.307,185.917z"></path>
		<path fill="#5B6452" d="M389.514,185.557c2.822,2.038,7.352,2.703,12,1.435c4.646-1.268,8.212-4.141,9.607-7.331
			c-2.822-2.039-7.353-2.704-12-1.436C394.474,179.494,390.909,182.367,389.514,185.557z"></path>
		<path fill="#5B6452" d="M374.409,186.205c-0.132-4.474,3.793-8.22,8.768-8.367c4.974-0.147,9.111,3.361,9.245,7.835
			c0.01,0.346-0.008,0.687-0.044,1.023l-0.747,17.549c0.111,3.81-3.23,6.999-7.466,7.124c-4.234,0.125-7.759-2.862-7.87-6.672
			l-1.78-17.474C374.457,186.89,374.421,186.551,374.409,186.205z"></path>
		<g>
			<path fill="#3C4735" d="M381.102,205.607c1.645,1.551,4.234,1.475,5.784-0.17c0.176-0.187,0.468-0.194,0.652-0.021
				c0.186,0.174,0.194,0.468,0.021,0.653c-1.9,2.016-5.075,2.109-7.091,0.209c-0.187-0.176-0.194-0.469-0.021-0.653
				S380.915,205.434,381.102,205.607z"></path>
			
				<rect x="383.702" y="207.28" transform="matrix(0.9996 -0.0293 0.0293 0.9996 -5.9557 11.3509)" fill="#3C4735" width="0.733" height="2.948"></rect>
			<path fill="#3C4735" d="M382.648,209.896l2.946-0.088c0.201-0.006,0.37,0.152,0.376,0.354s-0.153,0.371-0.354,0.377l-2.945,0.087
				c-0.202,0.006-0.37-0.152-0.376-0.355C382.287,210.07,382.446,209.9,382.648,209.896z"></path>
		</g>
		<g>
			<circle fill="#FFFFFF" cx="376.75" cy="188.671" r="2.256"></circle>
			<circle fill="#84897C" cx="376.75" cy="188.671" r="1.137"></circle>
		</g>
		<g>
			<circle fill="#FFFFFF" cx="390.231" cy="188.273" r="2.256"></circle>
			<circle fill="#84897C" cx="390.231" cy="188.274" r="1.137"></circle>
		</g>
	</g>
</g>
<g>
	<path fill="#3F4B3A" d="M306.133,244.577v40.055c0,0.976-0.948,1.767-2.119,1.767s-2.12-0.791-2.12-1.767v-40.055H306.133z"></path>
	<path fill="#3F4B3A" d="M323.07,244.577v40.055c0,0.976-0.949,1.767-2.12,1.767s-2.119-0.791-2.119-1.767v-40.055H323.07z"></path>
	<path fill="#2F3C2C" d="M346.596,244.577v40.055c0,0.976-0.949,1.767-2.12,1.767s-2.119-0.791-2.119-1.767v-40.055H346.596z"></path>
	<path fill="#2F3C2C" d="M364.14,244.577v40.055c0,0.976-0.949,1.767-2.12,1.767s-2.119-0.791-2.119-1.767v-40.055H364.14z"></path>
	<path fill="#FBF9F3" d="M313.625,241.145L313.625,241.145c12.986,0,23.517-10.528,23.517-23.518v-22.07
		c0-12.988-10.529-23.517-23.517-23.517l0,0c-12.988,0-23.519,10.529-23.519,23.517v22.07
		C290.107,230.615,300.637,241.145,313.625,241.145z"></path>
	<path fill="#FBF9F3" d="M379.32,221.688L379.32,221.688c0-19.648-15.93-35.579-35.579-35.579h-18.055
		c-19.649,0-35.579,15.93-35.579,35.579l0,0c0,19.649,15.93,35.578,35.579,35.578h18.055
		C363.391,257.268,379.32,241.338,379.32,221.688z"></path>
	<g>
		<path fill="#505B49" d="M306.643,174.072c-3.116,2.422-8.222,3.358-13.538,2.107c-5.316-1.25-9.47-4.363-11.181-7.92
			c3.117-2.422,8.222-3.358,13.539-2.107C300.779,167.401,304.933,170.514,306.643,174.072z"></path>
		<path fill="#505B49" d="M320.487,173.99c3.146,2.386,8.261,3.261,13.563,1.947c5.302-1.313,9.418-4.474,11.086-8.052
			c-3.146-2.386-8.261-3.261-13.563-1.947C326.271,167.251,322.155,170.412,320.487,173.99z"></path>
		<path fill="#505B49" d="M303.353,174.32c-0.029-5.074,4.519-9.215,10.16-9.249c5.641-0.033,10.237,4.053,10.268,9.128
			c0.002,0.393-0.025,0.778-0.077,1.158l-1.314,19.87c0.024,4.321-3.848,7.847-8.65,7.875c-4.804,0.028-8.718-3.451-8.743-7.771
			l-1.551-19.853C303.388,175.099,303.355,174.713,303.353,174.32z"></path>
		<g>
			<path fill="#2F3C2B" d="M310.418,196.491c1.821,1.801,4.759,1.784,6.561-0.039c0.203-0.206,0.535-0.208,0.74-0.004
				c0.206,0.204,0.208,0.535,0.005,0.741c-2.208,2.234-5.81,2.255-8.043,0.047c-0.205-0.203-0.207-0.535-0.004-0.74
				C309.88,196.289,310.212,196.287,310.418,196.491z"></path>
			<rect x="313.304" y="198.455" fill="#2F3C2B" width="0.83" height="3.341"></rect>
			<path fill="#2F3C2B" d="M312.057,201.393l3.341-0.021c0.229-0.002,0.416,0.183,0.417,0.412s-0.183,0.415-0.412,0.417l-3.341,0.02
				c-0.229,0.002-0.416-0.184-0.417-0.412C311.643,201.579,311.826,201.393,312.057,201.393z"></path>
		</g>
		<g>
			<circle fill="#FFFFFF" cx="305.938" cy="177.179" r="2.558"></circle>
			<circle fill="#7B8173" cx="305.938" cy="177.178" r="1.29"></circle>
		</g>
		<g>
			<circle fill="#FFFFFF" cx="321.229" cy="177.088" r="2.558"></circle>
			<circle fill="#7B8173" cx="321.229" cy="177.088" r="1.29"></circle>
		</g>
	</g>
</g>
<g>
	<path fill="#334030" d="M278.677,238.229v46.137c0,1.123,1.094,2.033,2.442,2.033c1.348,0,2.44-0.91,2.44-2.033v-46.137H278.677
		L278.677,238.229z"></path>
	<path fill="#334030" d="M259.169,238.229v46.137c0,1.123,1.093,2.033,2.44,2.033c1.349,0,2.441-0.91,2.441-2.033v-46.137H259.169
		L259.169,238.229z"></path>
	<path fill="#233022" d="M232.072,238.229v46.137c0,1.123,1.094,2.033,2.441,2.033c1.349,0,2.442-0.91,2.442-2.033v-46.137H232.072
		L232.072,238.229z"></path>
	<path fill="#233022" d="M211.865,238.229v46.137c0,1.123,1.093,2.033,2.441,2.033s2.441-0.91,2.441-2.033v-46.137H211.865
		L211.865,238.229z"></path>
	<path fill="#233022" d="M270.049,234.273L270.049,234.273c-14.96,0-27.087-12.127-27.087-27.086v-25.421
		c0-14.959,12.127-27.087,27.087-27.087l0,0c14.959,0,27.087,12.127,27.087,27.087v25.421
		C297.136,222.146,285.008,234.273,270.049,234.273z"></path>
	<path fill="#233022" d="M194.38,211.865L194.38,211.865c0-22.633,18.347-40.98,40.979-40.98h20.795
		c22.634,0,40.98,18.347,40.98,40.98l0,0c0,22.632-18.348,40.979-40.98,40.979H235.36
		C212.727,252.846,194.38,234.497,194.38,211.865z"></path>
	<g id="head">
		<path id="ear2" fill="#384633" d="M275.979,155.805c4.019,2.129,9.995,2.176,15.779-0.3c5.783-2.475,9.877-6.832,11.109-11.208
			c-4.018-2.129-9.994-2.175-15.778,0.3C281.306,147.072,277.212,151.429,275.979,155.805z"></path>
		<path id="ear1" fill="#384633" d="M260.256,158.464c-3.095,3.332-8.726,5.341-15,4.905c-6.275-0.436-11.574-3.205-14.178-6.932
			c3.094-3.332,8.724-5.341,15-4.905C252.354,151.968,257.652,154.737,260.256,158.464z"></path>
		<path fill="#384633" d="M279.761,155.434c-0.975-5.763-6.958-9.557-13.364-8.474s-10.81,6.634-9.835,12.397
			c0.075,0.446,0.186,0.878,0.317,1.299l5.441,22.281c0.829,4.907,5.925,8.137,11.379,7.215c5.455-0.922,9.204-5.648,8.374-10.555
			l-2.186-22.832C279.876,156.323,279.836,155.879,279.761,155.434z"></path>
		<g>
			<path fill="#233021" d="M276.152,181.99c-1.71,2.406-5.046,2.97-7.45,1.26c-0.271-0.193-0.648-0.129-0.842,0.143
				c-0.192,0.271-0.13,0.648,0.143,0.841c2.949,2.095,7.038,1.404,9.134-1.545c0.193-0.271,0.129-0.648-0.143-0.841
				C276.722,181.655,276.345,181.719,276.152,181.99z"></path>
			
				<rect x="272.646" y="184.852" transform="matrix(-0.986 0.1667 -0.1667 -0.986 573.5643 325.4023)" fill="#233021" width="0.955" height="3.848"></rect>
			<path fill="#233021" d="M275.267,187.876l-3.794,0.642c-0.261,0.044-0.436,0.291-0.392,0.551c0.044,0.26,0.29,0.436,0.551,0.392
				l3.794-0.642c0.261-0.044,0.436-0.291,0.392-0.551C275.773,188.007,275.527,187.832,275.267,187.876z"></path>
		</g>
        <g id="eyes">
            <g>
                <circle fill="#FFFFFF" cx="277.396" cy="159.19" r="2.946"></circle>
                <circle fill="#233022" cx="277.396" cy="159.19" r="1.485"></circle>
            </g>
            <g>
                <circle fill="#FFFFFF" cx="260.03" cy="162.126" r="2.946"></circle>
                <circle fill="#233022" cx="260.03" cy="162.126" r="1.485"></circle>
            </g>
        </g>
	</g>
</g>
<g>
	<path fill="#283728" d="M201.069,235.62v48.634c0,1.184,1.152,2.145,2.574,2.145c1.421,0,2.574-0.961,2.574-2.145V235.62H201.069z"></path>
	<path fill="#283728" d="M180.504,235.62v48.634c0,1.184,1.151,2.145,2.574,2.145c1.421,0,2.573-0.961,2.573-2.145V235.62H180.504z"></path>
	<path fill="#16261A" d="M151.94,235.62v48.634c0,1.184,1.152,2.145,2.574,2.145s2.574-0.961,2.574-2.145V235.62H151.94z"></path>
	<path fill="#16261A" d="M130.638,235.62v48.634c0,1.184,1.152,2.145,2.574,2.145s2.574-0.961,2.574-2.145V235.62H130.638z"></path>
	<path fill="#FFFFFF" d="M191.974,231.45L191.974,231.45c-15.77,0-28.554-12.784-28.554-28.554v-26.797
		c0-15.77,12.784-28.554,28.554-28.554l0,0c15.771,0,28.554,12.784,28.554,28.554v26.797
		C220.527,218.666,207.744,231.45,191.974,231.45z"></path>
	<path fill="#FFFFFF" d="M112.206,207.827L112.206,207.827c0-23.858,19.341-43.199,43.199-43.199h21.923
		c23.857,0,43.198,19.341,43.198,43.199l0,0c0,23.858-19.341,43.2-43.198,43.2h-21.923
		C131.547,251.027,112.206,231.688,112.206,207.827z"></path>
	<g>
		<path fill="#3A4837" d="M200.378,149.962c3.802,2.919,10.007,4.018,16.454,2.461c6.446-1.557,11.467-5.365,13.518-9.697
			c-3.801-2.918-10.007-4.018-16.454-2.461C207.45,141.821,202.43,145.63,200.378,149.962z"></path>
		<path fill="#3A4837" d="M183.568,149.962c-3.802,2.919-10.007,4.018-16.454,2.461c-6.446-1.557-11.467-5.365-13.518-9.697
			c3.802-2.918,10.007-4.018,16.454-2.461C176.497,141.821,181.517,145.63,183.568,149.962z"></path>
		<path fill="#3A4837" d="M204.375,150.24c0-6.162-5.553-11.157-12.401-11.157c-6.85,0-12.402,4.995-12.402,11.157
			c0,0.477,0.037,0.945,0.103,1.406l1.741,24.116c0,5.247,4.728,9.5,10.56,9.5s10.56-4.253,10.56-9.5l1.74-24.116
			C204.338,151.185,204.375,150.717,204.375,150.24z"></path>
		<g>
			<path fill="#162619" d="M195.957,177.209c-2.2,2.2-5.768,2.2-7.966,0c-0.249-0.248-0.651-0.248-0.899,0
				c-0.249,0.249-0.249,0.651,0,0.899c2.697,2.697,7.068,2.697,9.765,0c0.249-0.248,0.249-0.651,0-0.899
				C196.607,176.961,196.205,176.961,195.957,177.209z"></path>
			<rect x="191.47" y="179.618" fill="#162619" width="1.007" height="4.057"></rect>
			<path fill="#162619" d="M194.002,183.171h-4.058c-0.277,0-0.504,0.226-0.504,0.503c0,0.278,0.227,0.504,0.504,0.504h4.058
				c0.277,0,0.503-0.226,0.503-0.504C194.505,183.397,194.28,183.171,194.002,183.171z"></path>
		</g>
		<g>
			<circle fill="#FFFFFF" cx="201.257" cy="153.729" r="3.106"></circle>
			<circle fill="#6A7264" cx="201.257" cy="153.729" r="1.565"></circle>
		</g>
		<g>
			<circle fill="#FFFFFF" cx="182.69" cy="153.729" r="3.106"></circle>
			<circle fill="#6A7264" cx="182.69" cy="153.729" r="1.566"></circle>
		</g>
	</g>
</g>
<g>
	<path fill="#4B5543" d="M123.849,249.51v35.33c0,0.86,0.837,1.559,1.87,1.559s1.87-0.697,1.87-1.559v-35.33H123.849z"></path>
	<path fill="#4B5543" d="M108.909,249.51v35.33c0,0.86,0.837,1.559,1.869,1.559c1.033,0,1.87-0.697,1.87-1.559v-35.33H108.909z"></path>
	<path fill="#3C4736" d="M88.158,249.51v35.33c0,0.86,0.837,1.559,1.869,1.559c1.033,0,1.87-0.697,1.87-1.559v-35.33H88.158z"></path>
	<path fill="#3C4736" d="M72.684,249.51v35.33c0,0.86,0.837,1.559,1.87,1.559s1.87-0.697,1.87-1.559v-35.33H72.684z"></path>
	<path fill="#F5F1E9" d="M117.241,246.48L117.241,246.48c-11.457,0-20.744-9.287-20.744-20.744V206.27
		c0-11.457,9.287-20.744,20.744-20.744l0,0c11.455,0,20.742,9.287,20.742,20.744v19.467
		C137.984,237.193,128.697,246.48,117.241,246.48z"></path>
	<path fill="#F5F1E9" d="M59.293,229.318L59.293,229.318c0-17.332,14.05-31.381,31.382-31.381h15.926
		c17.333,0,31.383,14.049,31.383,31.381l0,0c0,17.334-14.05,31.384-31.383,31.384H90.676
		C73.344,260.702,59.293,246.652,59.293,229.318z"></path>
	<g>
		<path fill="#5B6452" d="M121.609,186.15c3.116,1.555,7.693,1.479,12.075-0.523s7.435-5.415,8.297-8.788
			c-3.114-1.555-7.691-1.479-12.073,0.524C125.525,179.365,122.472,182.777,121.609,186.15z"></path>
		<path fill="#5B6452" d="M109.622,188.479c-2.308,2.608-6.58,4.251-11.394,4.034c-4.813-0.217-8.92-2.238-10.982-5.042
			c2.307-2.608,6.58-4.251,11.393-4.035C103.452,183.652,107.559,185.674,109.622,188.479z"></path>
		<path fill="#5B6452" d="M124.498,185.795c-0.854-4.394-5.505-7.187-10.39-6.238c-4.885,0.948-8.151,5.28-7.299,9.674
			c0.066,0.34,0.157,0.669,0.268,0.988l4.582,16.957c0.727,3.742,4.688,6.12,8.846,5.313c4.159-0.809,6.94-4.495,6.215-8.236
			l-2.099-17.439C124.603,186.475,124.564,186.135,124.498,185.795z"></path>
		<g>
			<path fill="#3C4735" d="M122.23,206.193c-1.264,1.873-3.807,2.367-5.681,1.104c-0.211-0.143-0.499-0.087-0.642,0.125
				c-0.144,0.212-0.088,0.499,0.125,0.643c2.297,1.549,5.414,0.942,6.964-1.354c0.143-0.212,0.087-0.499-0.125-0.643
				C122.659,205.926,122.373,205.982,122.23,206.193z"></path>
			
				<rect x="119.647" y="208.426" transform="matrix(-0.9814 0.192 -0.192 -0.9814 278.0961 392.8512)" fill="#3C4735" width="0.732" height="2.949"></rect>
			<path fill="#3C4735" d="M121.662,210.717l-2.894,0.563c-0.198,0.039-0.328,0.229-0.29,0.429c0.039,0.198,0.23,0.328,0.43,0.29
				l2.893-0.563c0.199-0.039,0.328-0.23,0.29-0.43S121.86,210.678,121.662,210.717z"></path>
		</g>
		<g>
			<circle fill="#FFFFFF" cx="122.758" cy="188.715" r="2.256"></circle>
			<circle fill="#84897C" cx="122.758" cy="188.715" r="1.137"></circle>
		</g>
		<g>
			<circle fill="#FFFFFF" cx="109.517" cy="191.287" r="2.256"></circle>
			<circle fill="#84897C" cx="109.517" cy="191.287" r="1.137"></circle>
		</g>
	</g>
</g>
</svg>