<svg xmlns="http://www.w3.org/2000/svg" id="uuid-e15df828-b0fb-491e-b1c5-377be4322c16" viewBox="0 0 60 60"><defs><style>.uuid-34587375-6aeb-4230-bb2c-0c7f70774b1e{fill:#399d34;}</style></defs><g id="uuid-e434de09-35f1-4161-bc59-716af456f439"><g id="uuid-c20777c0-0313-42e6-b5e9-bad4f13829e9"><path class="uuid-34587375-6aeb-4230-bb2c-0c7f70774b1e" d="M20.78,58.25c-.12,0-.24-.03-.35-.09-.33-.18-.48-.57-.35-.93l5.95-15.93h-5.14c-.25,0-.48-.12-.62-.33-.14-.21-.17-.47-.07-.7l6.33-15.31h-5.74c-.23,0-.45-.11-.59-.29-.14-.18-.19-.42-.14-.64L25.47,2.32c.08-.33.38-.57.73-.57h13.03c.25,0,.49.13.63.34.14.21.16.49.05.72l-7.02,15.34h5.16c.26,0,.5.13.64.35.14.22.15.49.04.73l-7.57,15.49h5.23c.28,0,.54.16.67.41s.11.55-.05.78l-15.6,22.03c-.15.2-.38.32-.61.32ZM22.01,39.81h5.1c.25,0,.48.12.62.32.14.2.17.46.09.69l-4.31,11.54,11.43-16.14h-4.98c-.26,0-.5-.13-.64-.35-.14-.22-.15-.49-.04-.73l7.57-15.49h-5.12c-.25,0-.49-.13-.63-.34-.14-.21-.16-.49-.05-.72l7.02-15.34h-11.27l-5.04,20.21h5.9c.25,0,.48.12.62.33.14.21.17.47.07.7l-6.33,15.31Z"></path></g></g></svg>