<svg xmlns="http://www.w3.org/2000/svg" id="uuid-c3ea6358-3fb6-4012-a65e-c02dabb3cd5f" viewBox="0 0 60 60"><defs><style>.uuid-16b46889-b745-4c7c-a881-e0bf2abb0f74{fill:#399d34;}</style></defs><g id="uuid-66bf9def-23ef-47bf-a791-eb409ab9b3db"><g id="uuid-a9d80fa2-ed96-4a5f-b24a-36f3bc67b45b"><g id="uuid-7955e36b-d407-4f2e-89fb-18bbcfbe3d9f"><path class="uuid-16b46889-b745-4c7c-a881-e0bf2abb0f74" d="M58.42,23.26L33.91,4.71c-2.26-1.69-5.4-1.69-7.66,0L1.71,23.26c-.58.37-.76,1.13-.4,1.71.35.58,1.12.75,1.69.4.07-.04.13-.09.18-.14l4.28-3.23v29.26c.01,2.92,2.38,5.3,5.31,5.3h34.59c2.92,0,5.3-2.38,5.3-5.3v-29.26l4.28,3.22c.26.19.59.26.91.2.33-.05.61-.23.8-.5.36-.52.26-1.25-.23-1.66ZM50.25,20.21l-.02,31.05c0,1.56-1.27,2.84-2.84,2.84H12.78c-1.57,0-2.84-1.27-2.84-2.84v-31.12L27.76,6.68c1.38-1.04,3.3-1.04,4.68,0l17.81,13.46v.07Z"></path></g><g id="uuid-baf1ecff-ba65-4f70-819e-31ef04d6e831"><path class="uuid-16b46889-b745-4c7c-a881-e0bf2abb0f74" d="M41.69,35.85c0,3.12-1.21,6.05-3.41,8.26-2.21,2.21-5.14,3.43-8.26,3.43-5.52-.04-9.95-3.52-11.29-8.87-1.34-5.34.92-10.49,5.76-13.11.19-.11.4-.17.61-.17.11,0,.23.02.34.05.32.09.59.3.76.59.33.6.12,1.37-.48,1.71-2.99,1.61-4.85,4.72-4.85,8.11,0,5.08,4.13,9.22,9.21,9.22,4.33,0,7.82-2.75,8.88-7,1.06-4.24-.72-8.3-4.53-10.33l-.05-.03c-.6-.32-.82-1.06-.51-1.65.32-.59,1.06-.82,1.65-.5,3.8,2.03,6.17,5.97,6.17,10.29Z"></path></g><g id="uuid-529dbb60-89ae-403a-b901-d61cf76bcca3"><path class="uuid-16b46889-b745-4c7c-a881-e0bf2abb0f74" d="M31.3,23.96v10.58c0,.33-.12.64-.36.87-.23.23-.54.36-.87.36s-.64-.13-.87-.36c-.23-.24-.36-.54-.36-.87v-10.58c0-.67.55-1.23,1.23-1.23.33,0,.64.13.87.36.24.24.36.54.36.87Z"></path></g></g></g></svg>