<svg xmlns="http://www.w3.org/2000/svg" id="uuid-fa6f3c23-0de8-4297-a820-29da302630e0" viewBox="0 0 60 60"><defs><style>.uuid-b0159c63-537f-49a8-8b14-c8f20e6ebf83{fill:#399d34;}</style></defs><path class="uuid-b0159c63-537f-49a8-8b14-c8f20e6ebf83" d="M50.62,2.21H10.23c-3.8,0-6.88,3.09-6.88,6.89v40.38c0,3.8,3.09,6.89,6.88,6.89h40.38c3.8,0,6.89-3.09,6.89-6.89V9.1c0-3.8-3.09-6.89-6.89-6.89ZM55.5,49.48c0,2.69-2.19,4.89-4.89,4.89H10.23c-2.69,0-4.88-2.19-4.88-4.89V9.1c0-2.69,2.19-4.89,4.88-4.89h40.38c2.69,0,4.89,2.19,4.89,4.89v40.38Z"></path><path class="uuid-b0159c63-537f-49a8-8b14-c8f20e6ebf83" d="M30.43,13.5c-8.71,0-15.79,7.08-15.79,15.79s7.08,15.79,15.79,15.79,15.79-7.08,15.79-15.79-7.08-15.79-15.79-15.79ZM30.43,43.08c-7.6,0-13.79-6.19-13.79-13.79s6.19-13.79,13.79-13.79,13.79,6.19,13.79,13.79-6.19,13.79-13.79,13.79Z"></path><path class="uuid-b0159c63-537f-49a8-8b14-c8f20e6ebf83" d="M25.38,27.35c-1.06,0-1.92.86-1.92,1.92s.86,1.92,1.92,1.92,1.92-.86,1.92-1.92-.86-1.92-1.92-1.92Z"></path><path class="uuid-b0159c63-537f-49a8-8b14-c8f20e6ebf83" d="M35.47,27.35c-1.06,0-1.92.86-1.92,1.92s.86,1.92,1.92,1.92,1.92-.86,1.92-1.92-.86-1.92-1.92-1.92Z"></path></svg>