<svg xmlns="http://www.w3.org/2000/svg" id="uuid-c0422ecf-950b-45e5-8b6f-7a607be9825d" viewBox="0 0 60 60"><defs><style>.uuid-19ccad33-cfb1-4e26-8cca-44cb8e0bd2fe{fill:#399d34;}</style></defs><g id="uuid-871a9f2e-b747-43dc-9222-c6e3d1482c7d"><path id="uuid-f852a9bc-d885-4e6d-9cc0-339afc333635" class="uuid-19ccad33-cfb1-4e26-8cca-44cb8e0bd2fe" d="M56.41,31.62h-7.15c-.6,0-1.08.48-1.08,1.08v9.44h-14.52l-3.18-11.88,15.49-4.15c.58-.16.92-.75.77-1.32l-.22-.84,4.68-1.26c.58-.16.92-.75.77-1.33,0,0,0,0,0,0l-3.02-11.27c-.15-.58-.75-.92-1.32-.77,0,0,0,0,0,0l-4.69,1.26-1.23-4.59c-.15-.58-.75-.92-1.32-.77l-27.89,7.47c-.28.07-.51.26-.66.5-.14.25-.18.54-.11.82l.73,2.71-4.15,1.11c-.28.07-.51.26-.66.5-.14.25-.18.54-.11.82l.77,2.89-5.01,1.34c-.58.16-.92.75-.76,1.32l1.92,7.17c.13.47.56.8,1.05.8.09,0,.19-.01.28-.04l5-1.34.77,2.89c.13.47.56.8,1.05.8.09,0,.19-.01.28-.04l15.49-4.15,3.4,12.68c.13.47.56.8,1.05.8h15.36v9.44c0,.6.48,1.08,1.08,1.08h7.15c.6,0,1.08-.48,1.08-1.08v-21.04c0-.6-.48-1.08-1.08-1.08h0ZM47.12,11.7l2.46,9.18-3.63.97-2.46-9.18,3.63-.97ZM39.88,7.6l1.32,4.93.13.5-23.08,6.19c-.27.07-.56.11-.84.09-1.23-.05-2.28-.89-2.6-2.08l-.73-2.71,25.79-6.91h0ZM6.27,30.29l-1.36-5.07,3.96-1.06,1.36,5.07-3.96,1.06ZM12.6,29.71l-1.92-7.17h0l-.77-2.89,3.22-.86s.03.05.05.08c.03.06.07.12.1.18s.07.12.11.18.08.11.12.17.08.11.12.17l.13.16c.05.05.09.1.14.16s.09.1.14.14.1.1.15.14.1.09.15.13.11.09.16.13.1.08.16.11.12.08.18.12.11.06.16.1c.06.04.12.08.19.11.05.03.11.05.16.08.07.04.14.07.21.1.05.02.11.04.16.06.07.03.14.06.22.08.05.02.1.03.15.05.08.02.16.05.24.07.05.01.1.02.14.03.08.02.17.04.26.05l.13.02c.09.01.19.03.28.04h.03c.14.01.28.01.41.01.11,0,.23,0,.34-.01.04,0,.08,0,.12-.01.09,0,.18-.02.28-.04.04,0,.08-.01.12-.02.13-.02.26-.05.39-.09l23.08-6.19,2.24,8.35.22.83-15.49,4.15-15.49,4.15-.77-2.89h-.01ZM55.33,52.66h-4.99v-18.87h4.99v18.87Z"></path></g></svg>