<svg xmlns="http://www.w3.org/2000/svg" id="Ebene_2" data-name="Ebene 2" viewBox="0 0 36.81 56.67"><defs><style>      .cls-1 {        fill: #399d34;        fill-rule: evenodd;      }    </style></defs><g id="Ebene_1-2" data-name="Ebene 1"><path class="cls-1" d="M15.22,49.46H1.91c-.51,0-.99-.23-1.35-.65-.36-.41-.56-.98-.56-1.56V2.21C0,1.62,.2,1.06,.56,.65c.36-.41,.84-.65,1.35-.65H34.91c.51,0,.99,.23,1.35,.65,.36,.42,.56,.98,.56,1.56V47.25c0,.59-.2,1.15-.56,1.56-.36,.41-.84,.65-1.35,.65h-13.26v2.54h3.1c.65,0,1.27,.3,1.73,.83,.47,.53,.72,1.25,.72,2.01v1.08c0,.69-.64,.75-.64,.75H10.22c-.23-.01-.42-.16-.52-.36-.03-.05-.05-.11-.06-.18v-.03s-.03-.1-.03-.16v-1.09c0-.75,.27-1.48,.72-2.01s1.08-.83,1.73-.83h3.15v-2.54Zm10.72,5.73H10.88v-.36c0-.36,.13-.71,.34-.96,.23-.26,.52-.4,.84-.4h12.69c.32,0,.61,.14,.84,.4,.22,.26,.34,.6,.34,.96v.36Zm-9.44-5.73v2.54h3.89v-2.54h-3.89ZM35.54,2.21V47.26c0,.2-.06,.38-.19,.52-.11,.14-.28,.22-.44,.22H1.91c-.17,0-.33-.08-.44-.22-.13-.14-.19-.33-.19-.52V2.21c0-.19,.06-.38,.19-.52,.11-.14,.28-.22,.44-.22H34.91c.17,0,.33,.08,.44,.22,.13,.14,.19,.33,.19,.52Zm-1.4,1.57c0-.41-.28-.74-.64-.74H3.31c-.36,0-.64,.33-.64,.74V45.69c0,.41,.28,.74,.64,.74h30.2c.36,0,.64-.33,.64-.74V3.78Zm-1.27,.74V44.95H3.94V4.51h28.93Z"></path></g></svg>