<svg xmlns="http://www.w3.org/2000/svg" id="uuid-bea76f44-dbd4-41a3-bf67-1fe06588b435" viewBox="0 0 60 60"><defs><style>.uuid-2efa0171-14f5-4ec4-a987-d33f0ffb842f{fill:#399d34;fill-rule:evenodd;}</style></defs><path class="uuid-2efa0171-14f5-4ec4-a987-d33f0ffb842f" d="M35.69,44.35h-11.38c-.46,0-.82.37-.82.83v7.58c0,.46.36.83.82.83h4.87v2.14h-2.03c-.45,0-.82.37-.82.82s.37.83.82.83h5.69c.46,0,.83-.37.83-.83s-.37-.82-.83-.82h-2.02v-2.14h4.87c.45,0,.82-.37.82-.83v-7.58c0-.46-.37-.83-.82-.83ZM34.87,51.94h-9.74v-5.94h9.74v5.94ZM14.83,44.35H3.45c-.46,0-.83.37-.83.83v7.58c0,.46.37.83.83.83h4.86v2.14h-2.02c-.45,0-.82.37-.82.82s.37.83.82.83h5.69c.46,0,.82-.37.82-.83s-.36-.82-.82-.82h-2.02v-2.14h4.87c.45,0,.82-.37.82-.83v-7.58c0-.46-.37-.83-.82-.83ZM14,51.94H4.27v-5.94h9.73v5.94ZM56.55,44.35h-11.38c-.45,0-.82.37-.82.83v7.58c0,.46.37.83.82.83h4.87v2.14h-2.02c-.46,0-.83.37-.83.82s.37.83.83.83h5.69c.45,0,.82-.37.82-.83s-.37-.82-.82-.82h-2.03v-2.14h4.87c.45,0,.82-.37.82-.83v-7.58c0-.46-.37-.83-.82-.83ZM55.73,51.94h-9.74v-5.94h9.74v5.94ZM23.36,25.39h-.95c-.45,0-.82.37-.82.82s.37.82.82.82h.95c.45,0,.82-.37.82-.82s-.37-.82-.82-.82ZM28.1,25.39h-.95c-.45,0-.82.37-.82.82s.37.82.82.82h.95c.46,0,.83-.37.83-.82s-.37-.82-.83-.82ZM37.58,25.39h-4.74c-.45,0-.82.37-.82.82s.37.82.82.82h4.74c.46,0,.83-.37.83-.82s-.37-.82-.83-.82ZM37.58,25.39h-4.74c-.45,0-.82.37-.82.82s.37.82.82.82h4.74c.46,0,.83-.37.83-.82s-.37-.82-.83-.82ZM28.1,25.39h-.95c-.45,0-.82.37-.82.82s.37.82.82.82h.95c.46,0,.83-.37.83-.82s-.37-.82-.83-.82ZM23.36,25.39h-.95c-.45,0-.82.37-.82.82s.37.82.82.82h.95c.45,0,.82-.37.82-.82s-.37-.82-.82-.82ZM23.36,25.39h-.95c-.45,0-.82.37-.82.82s.37.82.82.82h.95c.45,0,.82-.37.82-.82s-.37-.82-.82-.82ZM28.1,25.39h-.95c-.45,0-.82.37-.82.82s.37.82.82.82h.95c.46,0,.83-.37.83-.82s-.37-.82-.83-.82ZM37.58,25.39h-4.74c-.45,0-.82.37-.82.82s.37.82.82.82h4.74c.46,0,.83-.37.83-.82s-.37-.82-.83-.82ZM37.58,25.39h-4.74c-.45,0-.82.37-.82.82s.37.82.82.82h4.74c.46,0,.83-.37.83-.82s-.37-.82-.83-.82ZM28.1,25.39h-.95c-.45,0-.82.37-.82.82s.37.82.82.82h.95c.46,0,.83-.37.83-.82s-.37-.82-.83-.82ZM23.36,25.39h-.95c-.45,0-.82.37-.82.82s.37.82.82.82h.95c.45,0,.82-.37.82-.82s-.37-.82-.82-.82ZM23.36,25.39h-.95c-.45,0-.82.37-.82.82s.37.82.82.82h.95c.45,0,.82-.37.82-.82s-.37-.82-.82-.82ZM28.1,25.39h-.95c-.45,0-.82.37-.82.82s.37.82.82.82h.95c.46,0,.83-.37.83-.82s-.37-.82-.83-.82ZM37.58,25.39h-4.74c-.45,0-.82.37-.82.82s.37.82.82.82h4.74c.46,0,.83-.37.83-.82s-.37-.82-.83-.82ZM37.58,25.39h-4.74c-.45,0-.82.37-.82.82s.37.82.82.82h4.74c.46,0,.83-.37.83-.82s-.37-.82-.83-.82ZM28.1,25.39h-.95c-.45,0-.82.37-.82.82s.37.82.82.82h.95c.46,0,.83-.37.83-.82s-.37-.82-.83-.82ZM23.36,25.39h-.95c-.45,0-.82.37-.82.82s.37.82.82.82h.95c.45,0,.82-.37.82-.82s-.37-.82-.82-.82ZM23.36,25.39h-.95c-.45,0-.82.37-.82.82s.37.82.82.82h.95c.45,0,.82-.37.82-.82s-.37-.82-.82-.82ZM28.1,25.39h-.95c-.45,0-.82.37-.82.82s.37.82.82.82h.95c.46,0,.83-.37.83-.82s-.37-.82-.83-.82ZM37.58,25.39h-4.74c-.45,0-.82.37-.82.82s.37.82.82.82h4.74c.46,0,.83-.37.83-.82s-.37-.82-.83-.82ZM37.58,25.39h-4.74c-.45,0-.82.37-.82.82s.37.82.82.82h4.74c.46,0,.83-.37.83-.82s-.37-.82-.83-.82ZM28.1,25.39h-.95c-.45,0-.82.37-.82.82s.37.82.82.82h.95c.46,0,.83-.37.83-.82s-.37-.82-.83-.82ZM23.36,25.39h-.95c-.45,0-.82.37-.82.82s.37.82.82.82h.95c.45,0,.82-.37.82-.82s-.37-.82-.82-.82ZM23.36,25.39h-.95c-.45,0-.82.37-.82.82s.37.82.82.82h.95c.45,0,.82-.37.82-.82s-.37-.82-.82-.82ZM28.1,25.39h-.95c-.45,0-.82.37-.82.82s.37.82.82.82h.95c.46,0,.83-.37.83-.82s-.37-.82-.83-.82ZM37.58,25.39h-4.74c-.45,0-.82.37-.82.82s.37.82.82.82h4.74c.46,0,.83-.37.83-.82s-.37-.82-.83-.82ZM37.58,25.39h-4.74c-.45,0-.82.37-.82.82s.37.82.82.82h4.74c.46,0,.83-.37.83-.82s-.37-.82-.83-.82ZM28.1,25.39h-.95c-.45,0-.82.37-.82.82s.37.82.82.82h.95c.46,0,.83-.37.83-.82s-.37-.82-.83-.82ZM23.36,25.39h-.95c-.45,0-.82.37-.82.82s.37.82.82.82h.95c.45,0,.82-.37.82-.82s-.37-.82-.82-.82ZM23.36,25.39h-.95c-.45,0-.82.37-.82.82s.37.82.82.82h.95c.45,0,.82-.37.82-.82s-.37-.82-.82-.82ZM28.1,25.39h-.95c-.45,0-.82.37-.82.82s.37.82.82.82h.95c.46,0,.83-.37.83-.82s-.37-.82-.83-.82ZM37.58,25.39h-4.74c-.45,0-.82.37-.82.82s.37.82.82.82h4.74c.46,0,.83-.37.83-.82s-.37-.82-.83-.82ZM37.58,25.39h-4.74c-.45,0-.82.37-.82.82s.37.82.82.82h4.74c.46,0,.83-.37.83-.82s-.37-.82-.83-.82ZM28.1,25.39h-.95c-.45,0-.82.37-.82.82s.37.82.82.82h.95c.46,0,.83-.37.83-.82s-.37-.82-.83-.82ZM23.36,25.39h-.95c-.45,0-.82.37-.82.82s.37.82.82.82h.95c.45,0,.82-.37.82-.82s-.37-.82-.82-.82ZM23.36,25.39h-.95c-.45,0-.82.37-.82.82s.37.82.82.82h.95c.45,0,.82-.37.82-.82s-.37-.82-.82-.82ZM28.1,25.39h-.95c-.45,0-.82.37-.82.82s.37.82.82.82h.95c.46,0,.83-.37.83-.82s-.37-.82-.83-.82ZM37.58,25.39h-4.74c-.45,0-.82.37-.82.82s.37.82.82.82h4.74c.46,0,.83-.37.83-.82s-.37-.82-.83-.82ZM37.58,25.39h-4.74c-.45,0-.82.37-.82.82s.37.82.82.82h4.74c.46,0,.83-.37.83-.82s-.37-.82-.83-.82ZM28.1,25.39h-.95c-.45,0-.82.37-.82.82s.37.82.82.82h.95c.46,0,.83-.37.83-.82s-.37-.82-.83-.82ZM23.36,25.39h-.95c-.45,0-.82.37-.82.82s.37.82.82.82h.95c.45,0,.82-.37.82-.82s-.37-.82-.82-.82ZM23.36,25.39h-.95c-.45,0-.82.37-.82.82s.37.82.82.82h.95c.45,0,.82-.37.82-.82s-.37-.82-.82-.82ZM28.1,25.39h-.95c-.45,0-.82.37-.82.82s.37.82.82.82h.95c.46,0,.83-.37.83-.82s-.37-.82-.83-.82ZM37.58,25.39h-4.74c-.45,0-.82.37-.82.82s.37.82.82.82h4.74c.46,0,.83-.37.83-.82s-.37-.82-.83-.82ZM37.58,25.39h-4.74c-.45,0-.82.37-.82.82s.37.82.82.82h4.74c.46,0,.83-.37.83-.82s-.37-.82-.83-.82ZM28.1,25.39h-.95c-.45,0-.82.37-.82.82s.37.82.82.82h.95c.46,0,.83-.37.83-.82s-.37-.82-.83-.82ZM23.36,25.39h-.95c-.45,0-.82.37-.82.82s.37.82.82.82h.95c.45,0,.82-.37.82-.82s-.37-.82-.82-.82ZM23.36,25.39h-.95c-.45,0-.82.37-.82.82s.37.82.82.82h.95c.45,0,.82-.37.82-.82s-.37-.82-.82-.82ZM28.1,25.39h-.95c-.45,0-.82.37-.82.82s.37.82.82.82h.95c.46,0,.83-.37.83-.82s-.37-.82-.83-.82ZM37.58,25.39h-4.74c-.45,0-.82.37-.82.82s.37.82.82.82h4.74c.46,0,.83-.37.83-.82s-.37-.82-.83-.82ZM37.58,25.39h-4.74c-.45,0-.82.37-.82.82s.37.82.82.82h4.74c.46,0,.83-.37.83-.82s-.37-.82-.83-.82ZM28.1,25.39h-.95c-.45,0-.82.37-.82.82s.37.82.82.82h.95c.46,0,.83-.37.83-.82s-.37-.82-.83-.82ZM23.36,25.39h-.95c-.45,0-.82.37-.82.82s.37.82.82.82h.95c.45,0,.82-.37.82-.82s-.37-.82-.82-.82ZM41.38,29.88c.45,0,.82-.37.82-.83v-2.02h8.66c.45,0,.82-.37.82-.82v-7.59c0-.45-.37-.82-.82-.82s-.82.37-.82.82v6.77h-7.84v-2.02c0-.46-.37-.83-.82-.83h-22.76c-.45,0-.82.37-.82.83v2.02h-7.84v-6.77c0-.45-.37-.82-.82-.82s-.83.37-.83.82v7.59c0,.45.37.82.83.82h8.66v2.02c0,.46.37.83.82.83h10.56v3.09H9.14c-.46,0-.83.37-.83.83v7.58c0,.46.37.83.83.83s.82-.37.82-.83v-6.76h19.22v6.76c0,.46.36.83.82.83s.82-.37.82-.83v-6.76h19.22v6.76c0,.46.37.83.82.83s.82-.37.82-.83v-7.58c0-.46-.37-.83-.82-.83h-20.04v-3.09h10.56ZM19.44,28.23v-4.04h21.11v4.04h-21.11ZM37.58,25.39h-4.74c-.45,0-.82.37-.82.82s.37.82.82.82h4.74c.46,0,.83-.37.83-.82s-.37-.82-.83-.82ZM28.1,25.39h-.95c-.45,0-.82.37-.82.82s.37.82.82.82h.95c.46,0,.83-.37.83-.82s-.37-.82-.83-.82ZM23.36,25.39h-.95c-.45,0-.82.37-.82.82s.37.82.82.82h.95c.45,0,.82-.37.82-.82s-.37-.82-.82-.82ZM23.36,25.39h-.95c-.45,0-.82.37-.82.82s.37.82.82.82h.95c.45,0,.82-.37.82-.82s-.37-.82-.82-.82ZM28.1,25.39h-.95c-.45,0-.82.37-.82.82s.37.82.82.82h.95c.46,0,.83-.37.83-.82s-.37-.82-.83-.82ZM37.58,25.39h-4.74c-.45,0-.82.37-.82.82s.37.82.82.82h4.74c.46,0,.83-.37.83-.82s-.37-.82-.83-.82ZM37.58,25.39h-4.74c-.45,0-.82.37-.82.82s.37.82.82.82h4.74c.46,0,.83-.37.83-.82s-.37-.82-.83-.82ZM28.1,25.39h-.95c-.45,0-.82.37-.82.82s.37.82.82.82h.95c.46,0,.83-.37.83-.82s-.37-.82-.83-.82ZM23.36,25.39h-.95c-.45,0-.82.37-.82.82s.37.82.82.82h.95c.45,0,.82-.37.82-.82s-.37-.82-.82-.82ZM23.36,25.39h-.95c-.45,0-.82.37-.82.82s.37.82.82.82h.95c.45,0,.82-.37.82-.82s-.37-.82-.82-.82ZM28.1,25.39h-.95c-.45,0-.82.37-.82.82s.37.82.82.82h.95c.46,0,.83-.37.83-.82s-.37-.82-.83-.82ZM37.58,25.39h-4.74c-.45,0-.82.37-.82.82s.37.82.82.82h4.74c.46,0,.83-.37.83-.82s-.37-.82-.83-.82ZM37.58,25.39h-4.74c-.45,0-.82.37-.82.82s.37.82.82.82h4.74c.46,0,.83-.37.83-.82s-.37-.82-.83-.82ZM28.1,25.39h-.95c-.45,0-.82.37-.82.82s.37.82.82.82h.95c.46,0,.83-.37.83-.82s-.37-.82-.83-.82ZM23.36,25.39h-.95c-.45,0-.82.37-.82.82s.37.82.82.82h.95c.45,0,.82-.37.82-.82s-.37-.82-.82-.82ZM23.36,25.39h-.95c-.45,0-.82.37-.82.82s.37.82.82.82h.95c.45,0,.82-.37.82-.82s-.37-.82-.82-.82ZM28.1,25.39h-.95c-.45,0-.82.37-.82.82s.37.82.82.82h.95c.46,0,.83-.37.83-.82s-.37-.82-.83-.82ZM37.58,25.39h-4.74c-.45,0-.82.37-.82.82s.37.82.82.82h4.74c.46,0,.83-.37.83-.82s-.37-.82-.83-.82ZM37.58,25.39h-4.74c-.45,0-.82.37-.82.82s.37.82.82.82h4.74c.46,0,.83-.37.83-.82s-.37-.82-.83-.82ZM28.1,25.39h-.95c-.45,0-.82.37-.82.82s.37.82.82.82h.95c.46,0,.83-.37.83-.82s-.37-.82-.83-.82ZM23.36,25.39h-.95c-.45,0-.82.37-.82.82s.37.82.82.82h.95c.45,0,.82-.37.82-.82s-.37-.82-.82-.82ZM23.36,25.39h-.95c-.45,0-.82.37-.82.82s.37.82.82.82h.95c.45,0,.82-.37.82-.82s-.37-.82-.82-.82ZM28.1,25.39h-.95c-.45,0-.82.37-.82.82s.37.82.82.82h.95c.46,0,.83-.37.83-.82s-.37-.82-.83-.82ZM37.58,25.39h-4.74c-.45,0-.82.37-.82.82s.37.82.82.82h4.74c.46,0,.83-.37.83-.82s-.37-.82-.83-.82ZM37.58,25.39h-4.74c-.45,0-.82.37-.82.82s.37.82.82.82h4.74c.46,0,.83-.37.83-.82s-.37-.82-.83-.82ZM28.1,25.39h-.95c-.45,0-.82.37-.82.82s.37.82.82.82h.95c.46,0,.83-.37.83-.82s-.37-.82-.83-.82ZM23.36,25.39h-.95c-.45,0-.82.37-.82.82s.37.82.82.82h.95c.45,0,.82-.37.82-.82s-.37-.82-.82-.82ZM23.36,25.39h-.95c-.45,0-.82.37-.82.82s.37.82.82.82h.95c.45,0,.82-.37.82-.82s-.37-.82-.82-.82ZM28.1,25.39h-.95c-.45,0-.82.37-.82.82s.37.82.82.82h.95c.46,0,.83-.37.83-.82s-.37-.82-.83-.82ZM37.58,25.39h-4.74c-.45,0-.82.37-.82.82s.37.82.82.82h4.74c.46,0,.83-.37.83-.82s-.37-.82-.83-.82ZM37.58,25.39h-4.74c-.45,0-.82.37-.82.82s.37.82.82.82h4.74c.46,0,.83-.37.83-.82s-.37-.82-.83-.82ZM28.1,25.39h-.95c-.45,0-.82.37-.82.82s.37.82.82.82h.95c.46,0,.83-.37.83-.82s-.37-.82-.83-.82ZM23.36,25.39h-.95c-.45,0-.82.37-.82.82s.37.82.82.82h.95c.45,0,.82-.37.82-.82s-.37-.82-.82-.82ZM23.36,25.39h-.95c-.45,0-.82.37-.82.82s.37.82.82.82h.95c.45,0,.82-.37.82-.82s-.37-.82-.82-.82ZM28.1,25.39h-.95c-.45,0-.82.37-.82.82s.37.82.82.82h.95c.46,0,.83-.37.83-.82s-.37-.82-.83-.82ZM37.58,25.39h-4.74c-.45,0-.82.37-.82.82s.37.82.82.82h4.74c.46,0,.83-.37.83-.82s-.37-.82-.83-.82ZM37.58,25.39h-4.74c-.45,0-.82.37-.82.82s.37.82.82.82h4.74c.46,0,.83-.37.83-.82s-.37-.82-.83-.82ZM28.1,25.39h-.95c-.45,0-.82.37-.82.82s.37.82.82.82h.95c.46,0,.83-.37.83-.82s-.37-.82-.83-.82ZM23.36,25.39h-.95c-.45,0-.82.37-.82.82s.37.82.82.82h.95c.45,0,.82-.37.82-.82s-.37-.82-.82-.82ZM23.36,25.39h-.95c-.45,0-.82.37-.82.82s.37.82.82.82h.95c.45,0,.82-.37.82-.82s-.37-.82-.82-.82ZM28.1,25.39h-.95c-.45,0-.82.37-.82.82s.37.82.82.82h.95c.46,0,.83-.37.83-.82s-.37-.82-.83-.82ZM37.58,25.39h-4.74c-.45,0-.82.37-.82.82s.37.82.82.82h4.74c.46,0,.83-.37.83-.82s-.37-.82-.83-.82ZM37.58,25.39h-4.74c-.45,0-.82.37-.82.82s.37.82.82.82h4.74c.46,0,.83-.37.83-.82s-.37-.82-.83-.82ZM28.1,25.39h-.95c-.45,0-.82.37-.82.82s.37.82.82.82h.95c.46,0,.83-.37.83-.82s-.37-.82-.83-.82ZM23.36,25.39h-.95c-.45,0-.82.37-.82.82s.37.82.82.82h.95c.45,0,.82-.37.82-.82s-.37-.82-.82-.82ZM23.36,25.39h-.95c-.45,0-.82.37-.82.82s.37.82.82.82h.95c.45,0,.82-.37.82-.82s-.37-.82-.82-.82ZM28.1,25.39h-.95c-.45,0-.82.37-.82.82s.37.82.82.82h.95c.46,0,.83-.37.83-.82s-.37-.82-.83-.82ZM37.58,25.39h-4.74c-.45,0-.82.37-.82.82s.37.82.82.82h4.74c.46,0,.83-.37.83-.82s-.37-.82-.83-.82ZM37.58,25.39h-4.74c-.45,0-.82.37-.82.82s.37.82.82.82h4.74c.46,0,.83-.37.83-.82s-.37-.82-.83-.82ZM28.1,25.39h-.95c-.45,0-.82.37-.82.82s.37.82.82.82h.95c.46,0,.83-.37.83-.82s-.37-.82-.83-.82ZM23.36,25.39h-.95c-.45,0-.82.37-.82.82s.37.82.82.82h.95c.45,0,.82-.37.82-.82s-.37-.82-.82-.82ZM23.36,25.39h-.95c-.45,0-.82.37-.82.82s.37.82.82.82h.95c.45,0,.82-.37.82-.82s-.37-.82-.82-.82ZM28.1,25.39h-.95c-.45,0-.82.37-.82.82s.37.82.82.82h.95c.46,0,.83-.37.83-.82s-.37-.82-.83-.82ZM37.58,25.39h-4.74c-.45,0-.82.37-.82.82s.37.82.82.82h4.74c.46,0,.83-.37.83-.82s-.37-.82-.83-.82ZM37.58,25.39h-4.74c-.45,0-.82.37-.82.82s.37.82.82.82h4.74c.46,0,.83-.37.83-.82s-.37-.82-.83-.82ZM28.1,25.39h-.95c-.45,0-.82.37-.82.82s.37.82.82.82h.95c.46,0,.83-.37.83-.82s-.37-.82-.83-.82ZM23.36,25.39h-.95c-.45,0-.82.37-.82.82s.37.82.82.82h.95c.45,0,.82-.37.82-.82s-.37-.82-.82-.82ZM30.47,19.7h-1c-.45,0-.82.37-.82.82s.37.82.82.82h1c.46,0,.83-.37.83-.82s-.37-.82-.83-.82ZM33.64,17.67c-.88-1.12-2.21-1.77-3.64-1.77s-2.75.65-3.63,1.78c-.14.17-.2.38-.17.6.03.22.14.41.31.55.36.28.87.22,1.16-.14.56-.72,1.41-1.14,2.33-1.14s1.78.42,2.34,1.14c.28.36.8.42,1.16.14.35-.28.42-.8.14-1.16ZM36.98,15.83c-1.57-2.33-4.18-3.72-6.98-3.72s-5.4,1.39-6.97,3.72c-.12.18-.17.4-.13.62.04.21.17.4.35.52.38.25.89.15,1.14-.22,1.26-1.87,3.36-2.99,5.61-2.99s4.35,1.12,5.61,2.99c.13.18.31.3.53.35.22.04.44-.01.62-.13s.3-.31.34-.52c.05-.22,0-.44-.12-.62ZM56.55,2.63h-11.38c-.45,0-.82.37-.82.82v7.59c0,.45.37.82.82.82h4.87v2.15h-2.02c-.46,0-.82.37-.82.82s.36.82.82.82h5.69c.45,0,.82-.36.82-.82s-.37-.82-.82-.82h-2.02v-2.15h4.86c.46,0,.83-.37.83-.82V3.45c0-.45-.37-.82-.83-.82ZM55.73,10.21h-9.73v-5.94h9.73v5.94ZM14.83,2.63H3.45c-.45,0-.82.37-.82.82v7.59c0,.45.37.82.82.82h4.87v2.15h-2.03c-.45,0-.82.37-.82.82s.37.82.82.82h5.69c.46,0,.83-.36.83-.82s-.37-.82-.83-.82h-2.02v-2.15h4.87c.45,0,.82-.37.82-.82V3.45c0-.45-.37-.82-.82-.82ZM14.01,10.21H4.27v-5.94h9.74v5.94Z"></path></svg>