<svg xmlns="http://www.w3.org/2000/svg" id="uuid-02734634-d52b-46a2-ad04-20618bc784f8" viewBox="0 0 60 60"><defs><style>.uuid-c76d42b4-5b46-42ee-86ae-770555be6fc7{fill:#399d34;}</style></defs><path class="uuid-c76d42b4-5b46-42ee-86ae-770555be6fc7" d="M55.03,44.35h-3.32v-25.61c0-2.3-1.88-4.18-4.18-4.18h-5.09c.49-.91.56-2,.15-3.01-.58-1.39-1.93-2.22-3.42-2.16-.5.03-.94-.15-1.3-.49-.34-.34-.52-.81-.49-1.3.08-1.5-.77-2.84-2.16-3.42-1.39-.58-2.94-.22-3.95.89-.33.37-.78.57-1.27.57s-.94-.21-1.27-.57c-1.01-1.12-2.56-1.47-3.95-.89s-2.23,1.92-2.16,3.42c.03.49-.15.95-.49,1.3-.35.34-.81.52-1.3.49-1.49-.07-2.84.77-3.42,2.16-.42,1.01-.35,2.1.14,3.01h-5.07c-2.3,0-4.18,1.88-4.18,4.18v25.61h-3.32c-1.37,0-2.47,1.11-2.47,2.47v2.84c0,3.54,2.88,6.42,6.42,6.42h42.17c3.54,0,6.42-2.88,6.42-6.42v-2.84c0-1.37-1.11-2.47-2.47-2.47ZM17.4,21.99c.58,1.39,1.91,2.23,3.42,2.16.49-.03.95.14,1.3.49s.52.81.49,1.3c-.08,1.5.77,2.84,2.16,3.42,1.39.58,2.94.22,3.95-.89.33-.37.78-.57,1.27-.57s.94.21,1.27.57c.69.76,1.63,1.16,2.59,1.16h0c.45,0,.92-.07,1.36-.26,1.39-.58,2.23-1.92,2.16-3.42-.03-.49.15-.95.49-1.3s.79-.53,1.3-.49c1.48.06,2.84-.77,3.42-2.16.28-.69.34-1.42.19-2.1h3.38v20.93H13.85v-20.93h3.36c-.15.68-.09,1.4.19,2.09ZM19.07,12.24c.22-.54.76-1.1,1.66-1.05.99.04,1.96-.32,2.66-1.03.7-.7,1.08-1.67,1.03-2.66-.04-.89.51-1.44,1.05-1.66.54-.22,1.33-.22,1.93.43.66.74,1.61,1.16,2.6,1.16s1.93-.42,2.6-1.16c.6-.66,1.39-.66,1.93-.43.54.22,1.1.77,1.05,1.66-.04.99.32,1.96,1.03,2.66.7.7,1.66,1.07,2.66,1.03.92-.04,1.44.51,1.66,1.05s.22,1.33-.43,1.93c-.24.22-.45.46-.62.73-.06.07-.1.15-.14.24-.26.5-.4,1.06-.4,1.63,0,.99.42,1.93,1.16,2.6.06.05.11.1.15.16.02.03.04.06.07.08.43.56.41,1.21.21,1.68-.22.54-.78,1.09-1.66,1.05-.99-.04-1.96.32-2.66,1.03-.7.69-1.08,1.66-1.03,2.65.04.89-.51,1.44-1.05,1.66s-1.33.22-1.93-.43c-.66-.74-1.61-1.16-2.6-1.16s-1.93.42-2.6,1.16c-.6.66-1.39.66-1.93.43s-1.1-.77-1.05-1.66c.04-.98-.32-1.95-1.03-2.65s-1.67-1.07-2.66-1.03c-.89.05-1.44-.51-1.66-1.05-.2-.47-.22-1.13.21-1.68.02-.03.05-.05.07-.08.05-.05.1-.11.16-.16.74-.66,1.16-1.61,1.16-2.6,0-.57-.14-1.13-.4-1.62-.04-.09-.09-.18-.15-.25-.17-.27-.37-.51-.61-.72-.66-.6-.66-1.39-.43-1.93ZM10.1,18.75c0-1.31,1.07-2.38,2.38-2.38h6.33c.03.13.05.27.05.41,0,.49-.21.94-.57,1.27-.02.02-.04.04-.06.05h-5.29c-.49,0-.9.4-.9.9v22.73c0,.49.4.9.9.9h34.1c.49,0,.9-.4.9-.9v-22.73c0-.49-.4-.9-.9-.9h-5.3s-.04-.04-.06-.05c-.37-.33-.57-.78-.57-1.27,0-.14.02-.28.05-.41h6.35c1.31,0,2.38,1.07,2.38,2.38v25.61h-12.75c-.06-.01-.11-.02-.17-.02s-.12,0-.17.02h-13.67c-.06-.01-.11-.02-.17-.02s-.12,0-.17.02h-12.69v-25.61ZM23.86,46.16h12.22v1.82c0,.75-.6,1.35-1.35,1.35h-9.52c-.75,0-1.35-.6-1.35-1.35v-1.82ZM55.69,49.68c0,2.55-2.07,4.62-4.62,4.62H8.92c-2.55,0-4.62-2.07-4.62-4.62v-2.84c0-.37.31-.67.67-.67h4.17s.03,0,.05,0h12.87v1.82c0,1.74,1.41,3.15,3.15,3.15h9.52c1.74,0,3.15-1.41,3.15-3.15v-1.82h12.92s.03,0,.05,0h4.16c.37,0,.67.31.67.67v2.84Z"></path><path class="uuid-c76d42b4-5b46-42ee-86ae-770555be6fc7" d="M30,23.66h0c3.81,0,6.9-3.1,6.9-6.9,0-.49-.4-.9-.9-.9s-.9.4-.9.9c0,2.82-2.29,5.1-5.1,5.1s-5.1-2.29-5.1-5.1,2.29-5.1,5.1-5.1c.81,0,1.58.19,2.3.55.44.22.98.04,1.21-.4.22-.44.04-.98-.4-1.21-.95-.49-2.03-.75-3.11-.75-3.81,0-6.9,3.1-6.9,6.9s3.1,6.9,6.9,6.9Z"></path><path class="uuid-c76d42b4-5b46-42ee-86ae-770555be6fc7" d="M27.83,14.62c-.33-.37-.9-.39-1.27-.05-.36.33-.39.9-.05,1.27l2.83,3.1c.17.18.4.3.64.3h.03-.02c.22,0,.45-.1.62-.26l6.43-6.19c.36-.34.37-.91.03-1.27s-.91-.37-1.27-.03l-5.77,5.55-2.2-2.41Z"></path></svg>