<svg xmlns="http://www.w3.org/2000/svg" id="uuid-f684d3c2-41a1-4a3e-a4bd-76ebd0a13e98" viewBox="0 0 60 60"><defs><style>.uuid-3797a7ab-4b53-49a0-9293-f1a8aac5b229{fill:#399d34;}</style></defs><g id="uuid-c769d8aa-992d-4158-91b3-2e668488f91f"><path id="uuid-c8cedea2-237a-4f18-9e7c-5e12c08e7e7c" class="uuid-3797a7ab-4b53-49a0-9293-f1a8aac5b229" d="M47.7,57.5H11.72c-2.09,0-3.78-1.7-3.78-3.78V6.29c0-2.09,1.69-3.78,3.78-3.79h35.98c2.08,0,3.77,1.69,3.78,3.78v47.44c0,2.09-1.69,3.78-3.78,3.78ZM11.72,4.39c-1.04,0-1.89.85-1.89,1.89v47.43c0,1.04.85,1.89,1.89,1.89h35.98c1.04,0,1.89-.84,1.89-1.89V6.28c0-1.04-.85-1.89-1.89-1.89H11.72Z"></path><path id="uuid-e585896f-5a38-4273-aefa-2a4aa9731e8b" class="uuid-3797a7ab-4b53-49a0-9293-f1a8aac5b229" d="M45.73,21.53H13.69c-.25,0-.49-.1-.67-.28-.18-.18-.28-.42-.28-.67V7.27c0-.52.42-.95.94-.95,0,0,0,0,0,0h32.03c.52,0,.95.42.95.94h0v13.31c0,.52-.42.94-.94.95,0,0,0,0,0,0ZM14.63,19.63h30.14v-11.42H14.63v11.42Z"></path><path id="uuid-33dc2e21-cd6b-4c27-8943-be074191621f" class="uuid-3797a7ab-4b53-49a0-9293-f1a8aac5b229" d="M17.06,30.36h-4.19c-.25,0-.49-.1-.67-.28-.18-.18-.28-.42-.28-.67v-4.19c0-.52.43-.95.95-.95h4.19c.52,0,.94.42.94.95v4.19c0,.52-.42.94-.94.94h0ZM13.81,28.46h2.3v-2.3h-2.3v2.3Z"></path><path id="uuid-89551c70-d6ab-46c1-bb67-6bf968848807" class="uuid-3797a7ab-4b53-49a0-9293-f1a8aac5b229" d="M24.88,30.36h-4.19c-.25,0-.49-.1-.67-.28-.18-.18-.28-.42-.28-.67v-4.19c0-.52.43-.95.95-.95h4.19c.52,0,.94.42.94.95v4.19c0,.52-.42.94-.94.94h0ZM21.64,28.46h2.3v-2.3h-2.3v2.3Z"></path><path id="uuid-9b46efa5-232a-4b5f-9acb-74b6f257b13f" class="uuid-3797a7ab-4b53-49a0-9293-f1a8aac5b229" d="M32.71,30.36h-4.19c-.52,0-.94-.42-.94-.94v-4.19c0-.52.42-.95.94-.95h4.19c.52,0,.94.43.94.95v4.19c0,.25-.1.49-.28.67-.18.18-.42.28-.67.28h0ZM29.47,28.46h2.29v-2.3h-2.29v2.3Z"></path><path id="uuid-ec46dc4a-2fe9-4dd1-b4df-2b952660c56a" class="uuid-3797a7ab-4b53-49a0-9293-f1a8aac5b229" d="M17.06,37.75h-4.19c-.52,0-.95-.42-.95-.95,0,0,0,0,0,0v-4.19c0-.52.43-.94.95-.95h4.19c.25,0,.49.1.67.28.18.18.28.42.28.67v4.19c0,.52-.42.94-.94.95,0,0,0,0,0,0h0ZM13.81,35.85h2.3v-2.3h-2.3v2.3Z"></path><path id="uuid-76362142-1333-447d-8c38-63c4087530a5" class="uuid-3797a7ab-4b53-49a0-9293-f1a8aac5b229" d="M24.88,37.75h-4.19c-.52,0-.95-.42-.95-.95h0v-4.19c0-.52.43-.94.95-.95h4.19c.25,0,.49.1.67.28.18.18.28.42.28.67v4.19c0,.52-.42.94-.94.95,0,0,0,0,0,0h0ZM21.64,35.85h2.3v-2.3h-2.3v2.3Z"></path><path id="uuid-1d064131-fa80-4993-aef1-658ef2ce0a2c" class="uuid-3797a7ab-4b53-49a0-9293-f1a8aac5b229" d="M32.71,37.75h-4.19c-.52,0-.94-.43-.94-.95v-4.19c0-.52.42-.94.94-.95h4.19c.52,0,.94.42.95.95v4.19c0,.52-.42.95-.95.95h0ZM29.47,35.85h2.29v-2.3h-2.29v2.3Z"></path><path id="uuid-e622409b-dbe0-4eea-b32d-880ba6dcd5f8" class="uuid-3797a7ab-4b53-49a0-9293-f1a8aac5b229" d="M17.06,45.14h-4.19c-.52,0-.95-.42-.95-.94,0,0,0,0,0,0v-4.19c0-.52.42-.95.95-.95h4.19c.52,0,.94.43.94.95v4.19c0,.25-.1.49-.28.67-.18.18-.42.28-.67.28h0ZM13.81,43.25h2.3v-2.3h-2.3v2.3Z"></path><path id="uuid-9742b651-f4ac-47b6-968e-9d7f72046544" class="uuid-3797a7ab-4b53-49a0-9293-f1a8aac5b229" d="M24.88,45.14h-4.19c-.52,0-.95-.42-.95-.94,0,0,0,0,0,0v-4.19c0-.52.42-.95.95-.95h4.19c.52,0,.94.43.94.95v4.19c0,.25-.1.49-.28.67-.18.18-.42.28-.67.28h0ZM21.64,43.25h2.3v-2.3h-2.3v2.3Z"></path><path id="uuid-4183c0e5-95a0-431e-87b5-f5e139278b70" class="uuid-3797a7ab-4b53-49a0-9293-f1a8aac5b229" d="M32.71,45.14h-4.19c-.52,0-.94-.42-.94-.95,0,0,0,0,0,0v-4.19c0-.52.42-.95.94-.95h4.19c.52,0,.95.43.95.95v4.19c0,.52-.42.95-.95.95h0ZM29.47,43.25h2.29v-2.3h-2.29v2.3Z"></path><path id="uuid-c506a7b2-e8a7-41f7-8008-69620c68d43f" class="uuid-3797a7ab-4b53-49a0-9293-f1a8aac5b229" d="M46.55,45.39h-10.22c-.52,0-.95-.42-.95-.95h0v-19.47c0-.52.43-.95.95-.95h10.22c.52,0,.95.42.95.95v19.47c0,.52-.43.95-.95.95h0ZM37.27,43.5h8.34v-17.58h-8.34v17.58Z"></path><path id="uuid-46ff8c34-de11-493b-95b9-c455e0f50c21" class="uuid-3797a7ab-4b53-49a0-9293-f1a8aac5b229" d="M28.08,53.67h-2.12c-.52-.02-.93-.47-.91-.99.02-.49.41-.88.91-.91h2.12c.52-.02.96.39.98.92,0,.27-.1.53-.29.71-.18.18-.43.27-.69.26h0Z"></path><path id="uuid-2c039641-10a9-4fd1-9ceb-a396680212a6" class="uuid-3797a7ab-4b53-49a0-9293-f1a8aac5b229" d="M28.08,50.37h-2.12c-.52-.02-.93-.47-.91-.99.02-.49.41-.88.91-.91h2.12c.52-.02.96.39.98.92,0,.27-.1.53-.29.71-.18.18-.43.27-.69.26h0Z"></path><path id="uuid-29d535f8-411c-4321-a00b-b49d0352b8e5" class="uuid-3797a7ab-4b53-49a0-9293-f1a8aac5b229" d="M33.45,53.67h-2.12c-.52-.02-.93-.47-.91-.99.02-.49.41-.88.91-.91h2.12c.52.02.93.47.91.99-.02.49-.41.88-.91.91h0Z"></path><path id="uuid-0d3b1025-47b3-4653-a431-841625314aa9" class="uuid-3797a7ab-4b53-49a0-9293-f1a8aac5b229" d="M33.45,50.37h-2.12c-.52-.02-.93-.47-.91-.99.02-.49.41-.88.91-.91h2.12c.52.02.93.47.91.99-.02.49-.41.88-.91.91h0Z"></path></g></svg>