<svg width="1400" height="800" xmlns="http://www.w3.org/2000/svg"><defs><linearGradient id="serviceGradient1" x1="0%" y1="0%" x2="100%" y2="100%"><stop offset="0%" stop-color="#399d34" stop-opacity=".08"/><stop offset="100%" stop-color="#2d7d2a" stop-opacity=".04"/></linearGradient><linearGradient id="serviceGradient2" x1="100%" y1="0%" x2="0%" y2="100%"><stop offset="0%" stop-color="#2d7d2a" stop-opacity=".06"/><stop offset="100%" stop-color="#399d34" stop-opacity=".02"/></linearGradient><pattern id="circuitPattern" x="0" y="0" width="200" height="200" patternUnits="userSpaceOnUse"><path stroke="#399d34" stroke-width=".8" opacity=".25" d="M0 50h200"/><path stroke="#2d7d2a" stroke-width=".8" opacity=".2" d="M0 150h200"/><path stroke="#399d34" stroke-width=".8" opacity=".22" d="M50 0v200"/><path stroke="#2d7d2a" stroke-width=".8" opacity=".18" d="M150 0v200"/><circle cx="50" cy="50" r="2.5" fill="#399d34" opacity=".3"/><circle cx="150" cy="50" r="2" fill="#2d7d2a" opacity=".25"/><circle cx="50" cy="150" r="2" fill="#2d7d2a" opacity=".25"/><circle cx="150" cy="150" r="2.5" fill="#399d34" opacity=".3"/><path stroke="#399d34" stroke-width=".3" opacity=".08" d="M50 50l100 100"/><path stroke="#2d7d2a" stroke-width=".3" opacity=".06" d="M150 50L50 150"/></pattern><filter id="glow" x="-50%" y="-50%" width="200%" height="200%"><feGaussianBlur stdDeviation="3" result="coloredBlur"/><feMerge><feMergeNode in="coloredBlur"/><feMergeNode in="SourceGraphic"/></feMerge></filter></defs><ellipse cx="200" cy="150" rx="300" ry="200" fill="url(#serviceGradient1)" opacity=".3"/><ellipse cx="1200" cy="650" rx="250" ry="150" fill="url(#serviceGradient2)" opacity=".4"/><ellipse cx="700" cy="400" rx="400" ry="100" fill="url(#serviceGradient1)" opacity=".2"/><path fill="url(#circuitPattern)" opacity=".6" d="M0 0h1400v800H0z"/><path d="M100 100q250 100 500 50t500 50" stroke="#399d34" fill="none" opacity=".1"/><path d="M300 600q400-100 700-50t300-50" stroke="#2d7d2a" stroke-width=".8" fill="none" opacity=".08"/><path fill="none" stroke="#399d34" stroke-width=".5" opacity=".15" d="M200 300h40v20h-40z"/><path fill="none" stroke="#2d7d2a" stroke-width=".4" opacity=".12" d="M800 150h30v15h-30z"/><path fill="none" stroke="#399d34" stroke-width=".5" opacity=".1" d="M1050 450h35v18h-35z"/><path d="M450 250v20m5-20v20" opacity=".1" stroke="#399d34"/><path d="M950 380v15m4-15v15" opacity=".08" stroke="#2d7d2a" stroke-width=".8"/><path d="M600 350l5-5 5 10 5-10 5 10 5-10 5 5" stroke="#399d34" stroke-width=".6" fill="none" opacity=".12"/><path d="M350 500l5-5 5 10 5-10 5 10 5-10 5 5" stroke="#2d7d2a" stroke-width=".5" fill="none" opacity=".09"/><circle cx="300" cy="200" r="3" fill="#399d34" opacity=".15"/><circle cx="750" cy="300" r="2.5" fill="#2d7d2a" opacity=".12"/><circle cx="500" cy="500" r="2" fill="#399d34" opacity=".1"/><circle cx="1100" cy="350" r="3" fill="#2d7d2a" opacity=".15"/><circle cx="150" cy="150" r="1" fill="#399d34" opacity=".3"><animate attributeName="opacity" values="0.3;0.8;0.3" dur="4s" repeatCount="indefinite"/></circle><circle cx="1250" cy="600" r="1.5" fill="#2d7d2a" opacity=".2"><animate attributeName="opacity" values="0.2;0.6;0.2" dur="5s" repeatCount="indefinite"/></circle><circle cx="700" cy="250" r="1" fill="#399d34" opacity=".25"><animate attributeName="opacity" values="0.25;0.7;0.25" dur="3s" repeatCount="indefinite"/></circle><path stroke="#399d34" stroke-width=".3" opacity=".06" d="M0 100l150-20"/><path stroke="#2d7d2a" stroke-width=".3" opacity=".05" d="M1250 200l150-20"/><path stroke="#399d34" stroke-width=".4" opacity=".07" d="M50 700l150 50"/><path stroke="#2d7d2a" stroke-width=".3" opacity=".04" d="M1200 100l150-50"/></svg>