<svg version="1.1" id="Ñëîé_1" xmlns="http://www.w3.org/2000/svg" x="0" y="0" width="379.765" height="160.898" viewBox="59.293 125.5 379.765 160.898" xml:space="preserve"><path fill="#4B5543" d="M374.502 249.51v35.33c0 .86-.838 1.559-1.869 1.559-1.033 0-1.87-.697-1.87-1.559v-35.33h3.739zm14.94 0v35.33c0 .86-.838 1.559-1.87 1.559-1.033 0-1.87-.697-1.87-1.559v-35.33h3.74z"/><path fill="#3C4736" d="M410.193 249.51v35.33c0 .86-.838 1.559-1.87 1.559-1.033 0-1.87-.697-1.87-1.559v-35.33h3.74zm15.475 0v35.33c0 .86-.838 1.559-1.87 1.559s-1.87-.697-1.87-1.559v-35.33h3.74z"/><path fill="#F5F1E9" d="M381.11 246.48c11.456 0 20.743-9.287 20.743-20.744V206.27c0-11.457-9.287-20.744-20.743-20.744-11.456 0-20.743 9.287-20.743 20.744v19.467c-.001 11.456 9.287 20.743 20.743 20.743z"/><path fill="#F5F1E9" d="M439.058 229.318c0-17.332-14.05-31.381-31.383-31.381H391.75c-17.334 0-31.384 14.049-31.384 31.381 0 17.334 14.05 31.384 31.384 31.384h15.925c17.333 0 31.383-14.05 31.383-31.384z"/><path fill="#5B6452" d="M377.307 185.917c-2.698 2.201-7.18 3.132-11.896 2.14-4.715-.992-8.44-3.65-10.023-6.752 2.698-2.201 7.181-3.132 11.896-2.14 4.712.992 8.441 3.65 10.023 6.752zm12.207-.36c2.822 2.038 7.352 2.703 12 1.435 4.646-1.268 8.212-4.141 9.607-7.331-2.822-2.039-7.353-2.704-12-1.436-4.647 1.269-8.212 4.142-9.607 7.332z"/><path fill="#5B6452" d="M374.409 186.205c-.132-4.474 3.793-8.22 8.768-8.367 4.974-.147 9.111 3.361 9.245 7.835.01.346-.008.687-.044 1.023l-.747 17.549c.111 3.81-3.23 6.999-7.466 7.124-4.234.125-7.759-2.862-7.87-6.672l-1.78-17.474a7.422 7.422 0 01-.106-1.018z"/><g fill="#3C4735"><path d="M381.102 205.607a4.09 4.09 0 005.784-.17.461.461 0 11.673.632 5.016 5.016 0 01-7.091.209c-.187-.176-.194-.469-.021-.653s.468-.191.655-.018z"/><path transform="rotate(-1.679 384.342 208.898)" d="M383.702 207.28h.733v2.948h-.733z"/><path d="M382.648 209.896l2.946-.088a.365.365 0 01.022.731l-2.945.087a.365.365 0 01-.376-.355.361.361 0 01.353-.375z"/></g><circle fill="#FFF" cx="376.75" cy="188.671" r="2.256"/><circle fill="#84897C" cx="376.75" cy="188.671" r="1.137"/><circle fill="#FFF" cx="390.231" cy="188.273" r="2.256"/><circle fill="#84897C" cx="390.231" cy="188.274" r="1.137"/><path fill="#3F4B3A" d="M306.133 244.577v40.055c0 .976-.948 1.767-2.119 1.767s-2.12-.791-2.12-1.767v-40.055h4.239zm16.937 0v40.055c0 .976-.949 1.767-2.12 1.767s-2.119-.791-2.119-1.767v-40.055h4.239z"/><path fill="#2F3C2C" d="M346.596 244.577v40.055c0 .976-.949 1.767-2.12 1.767s-2.119-.791-2.119-1.767v-40.055h4.239zm17.544 0v40.055c0 .976-.949 1.767-2.12 1.767s-2.119-.791-2.119-1.767v-40.055h4.239z"/><path fill="#FBF9F3" d="M313.625 241.145c12.986 0 23.517-10.528 23.517-23.518v-22.07c0-12.988-10.529-23.517-23.517-23.517s-23.519 10.529-23.519 23.517v22.07c.001 12.988 10.531 23.518 23.519 23.518z"/><path fill="#FBF9F3" d="M379.32 221.688c0-19.648-15.93-35.579-35.579-35.579h-18.055c-19.649 0-35.579 15.93-35.579 35.579s15.93 35.578 35.579 35.578h18.055c19.65.002 35.579-15.928 35.579-35.578z"/><path fill="#505B49" d="M306.643 174.072c-3.116 2.422-8.222 3.358-13.538 2.107-5.316-1.25-9.47-4.363-11.181-7.92 3.117-2.422 8.222-3.358 13.539-2.107 5.316 1.249 9.47 4.362 11.18 7.92zm13.844-.082c3.146 2.386 8.261 3.261 13.563 1.947 5.302-1.313 9.418-4.474 11.086-8.052-3.146-2.386-8.261-3.261-13.563-1.947-5.302 1.313-9.418 4.474-11.086 8.052z"/><path fill="#505B49" d="M303.353 174.32c-.029-5.074 4.519-9.215 10.16-9.249 5.641-.033 10.237 4.053 10.268 9.128.002.393-.025.778-.077 1.158l-1.314 19.87c.024 4.321-3.848 7.847-8.65 7.875-4.804.028-8.718-3.451-8.743-7.771l-1.551-19.853a7.911 7.911 0 01-.093-1.158z"/><g fill="#2F3C2B"><path d="M310.418 196.491a4.639 4.639 0 006.561-.039.524.524 0 01.745.737 5.687 5.687 0 01-8.043.047.524.524 0 01.737-.745z"/><path d="M313.304 198.455h.83v3.341h-.83z"/><path d="M312.057 201.393l3.341-.021a.414.414 0 11.005.829l-3.341.02a.414.414 0 11-.005-.828z"/></g><circle fill="#FFF" cx="305.938" cy="177.179" r="2.558"/><circle fill="#7B8173" cx="305.938" cy="177.178" r="1.29"/><circle fill="#FFF" cx="321.229" cy="177.088" r="2.558"/><circle fill="#7B8173" cx="321.229" cy="177.088" r="1.29"/><path fill="#334030" d="M278.677 238.229v46.137c0 1.123 1.094 2.033 2.442 2.033s2.44-.91 2.44-2.033v-46.137h-4.882zm-19.508 0v46.137c0 1.123 1.093 2.033 2.44 2.033 1.349 0 2.441-.91 2.441-2.033v-46.137h-4.881z"/><path fill="#233022" d="M232.072 238.229v46.137c0 1.123 1.094 2.033 2.441 2.033 1.349 0 2.442-.91 2.442-2.033v-46.137h-4.883zm-20.207 0v46.137c0 1.123 1.093 2.033 2.441 2.033s2.441-.91 2.441-2.033v-46.137h-4.882zm58.184-3.956c-14.96 0-27.087-12.127-27.087-27.086v-25.421c0-14.959 12.127-27.087 27.087-27.087 14.959 0 27.087 12.127 27.087 27.087v25.421c0 14.959-12.128 27.086-27.087 27.086z"/><path fill="#233022" d="M194.38 211.865c0-22.633 18.347-40.98 40.979-40.98h20.795c22.634 0 40.98 18.347 40.98 40.98 0 22.632-18.348 40.979-40.98 40.979H235.36c-22.633.002-40.98-18.347-40.98-40.979z"/><g id="head"><path id="ear2" fill="#384633" d="M275.979 155.805c4.019 2.129 9.995 2.176 15.779-.3 5.783-2.475 9.877-6.832 11.109-11.208-4.018-2.129-9.994-2.175-15.778.3-5.783 2.475-9.877 6.832-11.11 11.208z"/><path id="ear1" fill="#384633" d="M260.256 158.464c-3.095 3.332-8.726 5.341-15 4.905-6.275-.436-11.574-3.205-14.178-6.932 3.094-3.332 8.724-5.341 15-4.905 6.276.436 11.574 3.205 14.178 6.932z"/><path fill="#384633" d="M279.761 155.434c-.975-5.763-6.958-9.557-13.364-8.474s-10.81 6.634-9.835 12.397c.075.446.186.878.317 1.299l5.441 22.281c.829 4.907 5.925 8.137 11.379 7.215 5.455-.922 9.204-5.648 8.374-10.555l-2.186-22.832a9.405 9.405 0 00-.126-1.331z"/><g fill="#233021"><path d="M276.152 181.99a5.342 5.342 0 01-7.45 1.26.604.604 0 00-.699.984 6.551 6.551 0 009.134-1.545.603.603 0 10-.985-.699z"/><path transform="rotate(170.401 273.126 186.774)" d="M272.646 184.852h.955v3.848h-.955z"/><path d="M275.267 187.876l-3.794.642a.478.478 0 10.159.943l3.794-.642a.478.478 0 10-.159-.943z"/></g><g id="eyes"><circle fill="#FFF" cx="277.396" cy="159.19" r="2.946"/><circle fill="#233022" cx="277.396" cy="159.19" r="1.485"/><circle fill="#FFF" cx="260.03" cy="162.126" r="2.946"/><circle fill="#233022" cx="260.03" cy="162.126" r="1.485"/></g></g><path fill="#283728" d="M201.069 235.62v48.634c0 1.184 1.152 2.145 2.574 2.145 1.421 0 2.574-.961 2.574-2.145V235.62h-5.148zm-20.565 0v48.634c0 1.184 1.151 2.145 2.574 2.145 1.421 0 2.573-.961 2.573-2.145V235.62h-5.147z"/><path fill="#16261A" d="M151.94 235.62v48.634c0 1.184 1.152 2.145 2.574 2.145s2.574-.961 2.574-2.145V235.62h-5.148zm-21.302 0v48.634c0 1.184 1.152 2.145 2.574 2.145s2.574-.961 2.574-2.145V235.62h-5.148z"/><path fill="#FFF" d="M191.974 231.45c-15.77 0-28.554-12.784-28.554-28.554v-26.797c0-15.77 12.784-28.554 28.554-28.554 15.771 0 28.554 12.784 28.554 28.554v26.797c-.001 15.77-12.784 28.554-28.554 28.554z"/><path fill="#FFF" d="M112.206 207.827c0-23.858 19.341-43.199 43.199-43.199h21.923c23.857 0 43.198 19.341 43.198 43.199 0 23.858-19.341 43.2-43.198 43.2h-21.923c-23.858 0-43.199-19.339-43.199-43.2z"/><path fill="#3A4837" d="M200.378 149.962c3.802 2.919 10.007 4.018 16.454 2.461 6.446-1.557 11.467-5.365 13.518-9.697-3.801-2.918-10.007-4.018-16.454-2.461-6.446 1.556-11.466 5.365-13.518 9.697zm-16.81 0c-3.802 2.919-10.007 4.018-16.454 2.461-6.446-1.557-11.467-5.365-13.518-9.697 3.802-2.918 10.007-4.018 16.454-2.461 6.447 1.556 11.467 5.365 13.518 9.697z"/><path fill="#3A4837" d="M204.375 150.24c0-6.162-5.553-11.157-12.401-11.157-6.85 0-12.402 4.995-12.402 11.157 0 .477.037.945.103 1.406l1.741 24.116c0 5.247 4.728 9.5 10.56 9.5s10.56-4.253 10.56-9.5l1.74-24.116c.062-.461.099-.929.099-1.406z"/><g fill="#162619"><path d="M195.957 177.209a5.632 5.632 0 01-7.966 0 .636.636 0 00-.899.899 6.904 6.904 0 009.765 0 .634.634 0 000-.899.637.637 0 00-.9 0z"/><path d="M191.47 179.618h1.007v4.057h-1.007z"/><path d="M194.002 183.171h-4.058a.505.505 0 00-.504.503c0 .278.227.504.504.504h4.058a.504.504 0 000-1.007z"/></g><circle fill="#FFF" cx="201.257" cy="153.729" r="3.106"/><circle fill="#6A7264" cx="201.257" cy="153.729" r="1.565"/><circle fill="#FFF" cx="182.69" cy="153.729" r="3.106"/><circle fill="#6A7264" cx="182.69" cy="153.729" r="1.566"/><path fill="#4B5543" d="M123.849 249.51v35.33c0 .86.837 1.559 1.87 1.559s1.87-.697 1.87-1.559v-35.33h-3.74zm-14.94 0v35.33c0 .86.837 1.559 1.869 1.559 1.033 0 1.87-.697 1.87-1.559v-35.33h-3.739z"/><path fill="#3C4736" d="M88.158 249.51v35.33c0 .86.837 1.559 1.869 1.559 1.033 0 1.87-.697 1.87-1.559v-35.33h-3.739zm-15.474 0v35.33c0 .86.837 1.559 1.87 1.559s1.87-.697 1.87-1.559v-35.33h-3.74z"/><path fill="#F5F1E9" d="M117.241 246.48c-11.457 0-20.744-9.287-20.744-20.744V206.27c0-11.457 9.287-20.744 20.744-20.744 11.455 0 20.742 9.287 20.742 20.744v19.467c.001 11.456-9.286 20.743-20.742 20.743z"/><path fill="#F5F1E9" d="M59.293 229.318c0-17.332 14.05-31.381 31.382-31.381h15.926c17.333 0 31.383 14.049 31.383 31.381 0 17.334-14.05 31.384-31.383 31.384H90.676c-17.332 0-31.383-14.05-31.383-31.384z"/><path fill="#5B6452" d="M121.609 186.15c3.116 1.555 7.693 1.479 12.075-.523s7.435-5.415 8.297-8.788c-3.114-1.555-7.691-1.479-12.073.524-4.383 2.002-7.436 5.414-8.299 8.787zm-11.987 2.329c-2.308 2.608-6.58 4.251-11.394 4.034-4.813-.217-8.92-2.238-10.982-5.042 2.307-2.608 6.58-4.251 11.393-4.035 4.813.216 8.92 2.238 10.983 5.043z"/><path fill="#5B6452" d="M124.498 185.795c-.854-4.394-5.505-7.187-10.39-6.238-4.885.948-8.151 5.28-7.299 9.674.066.34.157.669.268.988l4.582 16.957c.727 3.742 4.688 6.12 8.846 5.313 4.159-.809 6.94-4.495 6.215-8.236l-2.099-17.439a7.396 7.396 0 00-.123-1.019z"/><g fill="#3C4735"><path d="M122.23 206.193a4.094 4.094 0 01-5.681 1.104.462.462 0 10-.517.768 5.018 5.018 0 006.964-1.354.463.463 0 00-.766-.518z"/><path transform="rotate(168.932 120.014 209.899)" d="M119.647 208.426h.732v2.949h-.732z"/><path d="M121.662 210.717l-2.894.563a.366.366 0 10.14.719l2.893-.563a.367.367 0 00-.139-.719z"/></g><circle fill="#FFF" cx="122.758" cy="188.715" r="2.256"/><circle fill="#84897C" cx="122.758" cy="188.715" r="1.137"/><circle fill="#FFF" cx="109.517" cy="191.287" r="2.256"/><circle fill="#84897C" cx="109.517" cy="191.287" r="1.137"/></svg>