<svg xmlns="http://www.w3.org/2000/svg" id="uuid-e15df828-b0fb-491e-b1c5-377be4322c16" viewBox="0 0 60 60"><g id="uuid-e434de09-35f1-4161-bc59-716af456f439"><path d="M20.78 58.25a.759.759 0 01-.7-1.02l5.95-15.93h-5.14c-.25 0-.48-.12-.62-.33a.73.73 0 01-.07-.7l6.33-15.31h-5.74a.754.754 0 01-.73-.93l5.41-21.71a.75.75 0 01.73-.57h13.03c.25 0 .49.13.63.34.14.21.16.49.05.72l-7.02 15.34h5.16c.26 0 .5.13.64.35.14.22.15.49.04.73l-7.57 15.49h5.23a.76.76 0 01.62 1.19l-15.6 22.03c-.15.2-.38.32-.61.32zm1.23-18.44h5.1c.25 0 .48.12.62.32s.17.46.09.69l-4.31 11.54 11.43-16.14h-4.98c-.26 0-.5-.13-.64-.35a.758.758 0 01-.04-.73l7.57-15.49h-5.12c-.25 0-.49-.13-.63-.34a.74.74 0 01-.05-.72l7.02-15.34H26.8l-5.04 20.21h5.9c.25 0 .48.12.62.33.14.21.17.47.07.7L22.02 39.8z" fill="#399d34" id="uuid-c20777c0-0313-42e6-b5e9-bad4f13829e9"/></g></svg>