<svg xmlns="http://www.w3.org/2000/svg" id="uuid-bea76f44-dbd4-41a3-bf67-1fe06588b435" viewBox="0 0 60 60"><path d="M35.69 44.35H24.31a.82.82 0 00-.82.83v7.58c0 .46.36.83.82.83h4.87v2.14h-2.03c-.45 0-.82.37-.82.82s.37.83.82.83h5.69c.46 0 .83-.37.83-.83s-.37-.82-.83-.82h-2.02v-2.14h4.87c.45 0 .82-.37.82-.83v-7.58c0-.46-.37-.83-.82-.83zm-.82 7.59h-9.74V46h9.74v5.94zm-20.04-7.59H3.45c-.46 0-.83.37-.83.83v7.58c0 .46.37.83.83.83h4.86v2.14H6.29c-.45 0-.82.37-.82.82s.37.83.82.83h5.69c.46 0 .82-.37.82-.83s-.36-.82-.82-.82H9.96v-2.14h4.87c.45 0 .82-.37.82-.83v-7.58c0-.46-.37-.83-.82-.83zM14 51.94H4.27V46H14v5.94zm42.55-7.59H45.17c-.45 0-.82.37-.82.83v7.58c0 .46.37.83.82.83h4.87v2.14h-2.02c-.46 0-.83.37-.83.82s.37.83.83.83h5.69a.826.826 0 000-1.65h-2.03v-2.14h4.87c.45 0 .82-.37.82-.83v-7.58c0-.46-.37-.83-.82-.83zm-.82 7.59h-9.74V46h9.74v5.94zM23.36 25.39h-.95c-.45 0-.82.37-.82.82s.37.82.82.82h.95c.45 0 .82-.37.82-.82s-.37-.82-.82-.82zm4.74 0h-.95c-.45 0-.82.37-.82.82s.37.82.82.82h.95c.46 0 .83-.37.83-.82s-.37-.82-.83-.82zm9.48 0h-4.74c-.45 0-.82.37-.82.82s.37.82.82.82h4.74c.46 0 .83-.37.83-.82s-.37-.82-.83-.82zm0 0h-4.74c-.45 0-.82.37-.82.82s.37.82.82.82h4.74c.46 0 .83-.37.83-.82s-.37-.82-.83-.82zm-9.48 0h-.95c-.45 0-.82.37-.82.82s.37.82.82.82h.95c.46 0 .83-.37.83-.82s-.37-.82-.83-.82zm-4.74 0h-.95c-.45 0-.82.37-.82.82s.37.82.82.82h.95c.45 0 .82-.37.82-.82s-.37-.82-.82-.82zm0 0h-.95c-.45 0-.82.37-.82.82s.37.82.82.82h.95c.45 0 .82-.37.82-.82s-.37-.82-.82-.82zm4.74 0h-.95c-.45 0-.82.37-.82.82s.37.82.82.82h.95c.46 0 .83-.37.83-.82s-.37-.82-.83-.82zm9.48 0h-4.74c-.45 0-.82.37-.82.82s.37.82.82.82h4.74c.46 0 .83-.37.83-.82s-.37-.82-.83-.82zm0 0h-4.74c-.45 0-.82.37-.82.82s.37.82.82.82h4.74c.46 0 .83-.37.83-.82s-.37-.82-.83-.82zm-9.48 0h-.95c-.45 0-.82.37-.82.82s.37.82.82.82h.95c.46 0 .83-.37.83-.82s-.37-.82-.83-.82zm-4.74 0h-.95c-.45 0-.82.37-.82.82s.37.82.82.82h.95c.45 0 .82-.37.82-.82s-.37-.82-.82-.82zm0 0h-.95c-.45 0-.82.37-.82.82s.37.82.82.82h.95c.45 0 .82-.37.82-.82s-.37-.82-.82-.82zm4.74 0h-.95c-.45 0-.82.37-.82.82s.37.82.82.82h.95c.46 0 .83-.37.83-.82s-.37-.82-.83-.82zm9.48 0h-4.74c-.45 0-.82.37-.82.82s.37.82.82.82h4.74c.46 0 .83-.37.83-.82s-.37-.82-.83-.82zm0 0h-4.74c-.45 0-.82.37-.82.82s.37.82.82.82h4.74c.46 0 .83-.37.83-.82s-.37-.82-.83-.82zm-9.48 0h-.95c-.45 0-.82.37-.82.82s.37.82.82.82h.95c.46 0 .83-.37.83-.82s-.37-.82-.83-.82zm-4.74 0h-.95c-.45 0-.82.37-.82.82s.37.82.82.82h.95c.45 0 .82-.37.82-.82s-.37-.82-.82-.82zm0 0h-.95c-.45 0-.82.37-.82.82s.37.82.82.82h.95c.45 0 .82-.37.82-.82s-.37-.82-.82-.82zm4.74 0h-.95c-.45 0-.82.37-.82.82s.37.82.82.82h.95c.46 0 .83-.37.83-.82s-.37-.82-.83-.82zm9.48 0h-4.74c-.45 0-.82.37-.82.82s.37.82.82.82h4.74c.46 0 .83-.37.83-.82s-.37-.82-.83-.82zm0 0h-4.74c-.45 0-.82.37-.82.82s.37.82.82.82h4.74c.46 0 .83-.37.83-.82s-.37-.82-.83-.82zm-9.48 0h-.95c-.45 0-.82.37-.82.82s.37.82.82.82h.95c.46 0 .83-.37.83-.82s-.37-.82-.83-.82zm-4.74 0h-.95c-.45 0-.82.37-.82.82s.37.82.82.82h.95c.45 0 .82-.37.82-.82s-.37-.82-.82-.82zm0 0h-.95c-.45 0-.82.37-.82.82s.37.82.82.82h.95c.45 0 .82-.37.82-.82s-.37-.82-.82-.82zm4.74 0h-.95c-.45 0-.82.37-.82.82s.37.82.82.82h.95c.46 0 .83-.37.83-.82s-.37-.82-.83-.82zm9.48 0h-4.74c-.45 0-.82.37-.82.82s.37.82.82.82h4.74c.46 0 .83-.37.83-.82s-.37-.82-.83-.82zm0 0h-4.74c-.45 0-.82.37-.82.82s.37.82.82.82h4.74c.46 0 .83-.37.83-.82s-.37-.82-.83-.82zm-9.48 0h-.95c-.45 0-.82.37-.82.82s.37.82.82.82h.95c.46 0 .83-.37.83-.82s-.37-.82-.83-.82zm-4.74 0h-.95c-.45 0-.82.37-.82.82s.37.82.82.82h.95c.45 0 .82-.37.82-.82s-.37-.82-.82-.82zm0 0h-.95c-.45 0-.82.37-.82.82s.37.82.82.82h.95c.45 0 .82-.37.82-.82s-.37-.82-.82-.82zm4.74 0h-.95c-.45 0-.82.37-.82.82s.37.82.82.82h.95c.46 0 .83-.37.83-.82s-.37-.82-.83-.82zm9.48 0h-4.74c-.45 0-.82.37-.82.82s.37.82.82.82h4.74c.46 0 .83-.37.83-.82s-.37-.82-.83-.82zm0 0h-4.74c-.45 0-.82.37-.82.82s.37.82.82.82h4.74c.46 0 .83-.37.83-.82s-.37-.82-.83-.82zm-9.48 0h-.95c-.45 0-.82.37-.82.82s.37.82.82.82h.95c.46 0 .83-.37.83-.82s-.37-.82-.83-.82zm-4.74 0h-.95c-.45 0-.82.37-.82.82s.37.82.82.82h.95c.45 0 .82-.37.82-.82s-.37-.82-.82-.82zm0 0h-.95c-.45 0-.82.37-.82.82s.37.82.82.82h.95c.45 0 .82-.37.82-.82s-.37-.82-.82-.82zm4.74 0h-.95c-.45 0-.82.37-.82.82s.37.82.82.82h.95c.46 0 .83-.37.83-.82s-.37-.82-.83-.82zm9.48 0h-4.74c-.45 0-.82.37-.82.82s.37.82.82.82h4.74c.46 0 .83-.37.83-.82s-.37-.82-.83-.82zm0 0h-4.74c-.45 0-.82.37-.82.82s.37.82.82.82h4.74c.46 0 .83-.37.83-.82s-.37-.82-.83-.82zm-9.48 0h-.95c-.45 0-.82.37-.82.82s.37.82.82.82h.95c.46 0 .83-.37.83-.82s-.37-.82-.83-.82zm-4.74 0h-.95c-.45 0-.82.37-.82.82s.37.82.82.82h.95c.45 0 .82-.37.82-.82s-.37-.82-.82-.82zm0 0h-.95c-.45 0-.82.37-.82.82s.37.82.82.82h.95c.45 0 .82-.37.82-.82s-.37-.82-.82-.82zm4.74 0h-.95c-.45 0-.82.37-.82.82s.37.82.82.82h.95c.46 0 .83-.37.83-.82s-.37-.82-.83-.82zm9.48 0h-4.74c-.45 0-.82.37-.82.82s.37.82.82.82h4.74c.46 0 .83-.37.83-.82s-.37-.82-.83-.82zm0 0h-4.74c-.45 0-.82.37-.82.82s.37.82.82.82h4.74c.46 0 .83-.37.83-.82s-.37-.82-.83-.82zm-9.48 0h-.95c-.45 0-.82.37-.82.82s.37.82.82.82h.95c.46 0 .83-.37.83-.82s-.37-.82-.83-.82zm-4.74 0h-.95c-.45 0-.82.37-.82.82s.37.82.82.82h.95c.45 0 .82-.37.82-.82s-.37-.82-.82-.82zm0 0h-.95c-.45 0-.82.37-.82.82s.37.82.82.82h.95c.45 0 .82-.37.82-.82s-.37-.82-.82-.82zm4.74 0h-.95c-.45 0-.82.37-.82.82s.37.82.82.82h.95c.46 0 .83-.37.83-.82s-.37-.82-.83-.82zm9.48 0h-4.74c-.45 0-.82.37-.82.82s.37.82.82.82h4.74c.46 0 .83-.37.83-.82s-.37-.82-.83-.82zm0 0h-4.74c-.45 0-.82.37-.82.82s.37.82.82.82h4.74c.46 0 .83-.37.83-.82s-.37-.82-.83-.82zm-9.48 0h-.95c-.45 0-.82.37-.82.82s.37.82.82.82h.95c.46 0 .83-.37.83-.82s-.37-.82-.83-.82zm-4.74 0h-.95c-.45 0-.82.37-.82.82s.37.82.82.82h.95c.45 0 .82-.37.82-.82s-.37-.82-.82-.82zm18.02 4.49c.45 0 .82-.37.82-.83v-2.02h8.66c.45 0 .82-.37.82-.82v-7.59c0-.45-.37-.82-.82-.82s-.82.37-.82.82v6.77H42.2v-2.02c0-.46-.37-.83-.82-.83H18.62c-.45 0-.82.37-.82.83v2.02H9.96v-6.77c0-.45-.37-.82-.82-.82s-.83.37-.83.82v7.59c0 .45.37.82.83.82h8.66v2.02c0 .46.37.83.82.83h10.56v3.09H9.14c-.46 0-.83.37-.83.83v7.58c0 .46.37.83.83.83s.82-.37.82-.83v-6.76h19.22v6.76a.82.82 0 101.64 0v-6.76h19.22v6.76c0 .46.37.83.82.83s.82-.37.82-.83V33.8c0-.46-.37-.83-.82-.83H30.82v-3.09h10.56zm-21.94-1.65v-4.04h21.11v4.04H19.44zm18.14-2.84h-4.74c-.45 0-.82.37-.82.82s.37.82.82.82h4.74c.46 0 .83-.37.83-.82s-.37-.82-.83-.82zm-9.48 0h-.95c-.45 0-.82.37-.82.82s.37.82.82.82h.95c.46 0 .83-.37.83-.82s-.37-.82-.83-.82zm-4.74 0h-.95c-.45 0-.82.37-.82.82s.37.82.82.82h.95c.45 0 .82-.37.82-.82s-.37-.82-.82-.82zm0 0h-.95c-.45 0-.82.37-.82.82s.37.82.82.82h.95c.45 0 .82-.37.82-.82s-.37-.82-.82-.82zm4.74 0h-.95c-.45 0-.82.37-.82.82s.37.82.82.82h.95c.46 0 .83-.37.83-.82s-.37-.82-.83-.82zm9.48 0h-4.74c-.45 0-.82.37-.82.82s.37.82.82.82h4.74c.46 0 .83-.37.83-.82s-.37-.82-.83-.82zm0 0h-4.74c-.45 0-.82.37-.82.82s.37.82.82.82h4.74c.46 0 .83-.37.83-.82s-.37-.82-.83-.82zm-9.48 0h-.95c-.45 0-.82.37-.82.82s.37.82.82.82h.95c.46 0 .83-.37.83-.82s-.37-.82-.83-.82zm-4.74 0h-.95c-.45 0-.82.37-.82.82s.37.82.82.82h.95c.45 0 .82-.37.82-.82s-.37-.82-.82-.82zm0 0h-.95c-.45 0-.82.37-.82.82s.37.82.82.82h.95c.45 0 .82-.37.82-.82s-.37-.82-.82-.82zm4.74 0h-.95c-.45 0-.82.37-.82.82s.37.82.82.82h.95c.46 0 .83-.37.83-.82s-.37-.82-.83-.82zm9.48 0h-4.74c-.45 0-.82.37-.82.82s.37.82.82.82h4.74c.46 0 .83-.37.83-.82s-.37-.82-.83-.82zm0 0h-4.74c-.45 0-.82.37-.82.82s.37.82.82.82h4.74c.46 0 .83-.37.83-.82s-.37-.82-.83-.82zm-9.48 0h-.95c-.45 0-.82.37-.82.82s.37.82.82.82h.95c.46 0 .83-.37.83-.82s-.37-.82-.83-.82zm-4.74 0h-.95c-.45 0-.82.37-.82.82s.37.82.82.82h.95c.45 0 .82-.37.82-.82s-.37-.82-.82-.82zm0 0h-.95c-.45 0-.82.37-.82.82s.37.82.82.82h.95c.45 0 .82-.37.82-.82s-.37-.82-.82-.82zm4.74 0h-.95c-.45 0-.82.37-.82.82s.37.82.82.82h.95c.46 0 .83-.37.83-.82s-.37-.82-.83-.82zm9.48 0h-4.74c-.45 0-.82.37-.82.82s.37.82.82.82h4.74c.46 0 .83-.37.83-.82s-.37-.82-.83-.82zm0 0h-4.74c-.45 0-.82.37-.82.82s.37.82.82.82h4.74c.46 0 .83-.37.83-.82s-.37-.82-.83-.82zm-9.48 0h-.95c-.45 0-.82.37-.82.82s.37.82.82.82h.95c.46 0 .83-.37.83-.82s-.37-.82-.83-.82zm-4.74 0h-.95c-.45 0-.82.37-.82.82s.37.82.82.82h.95c.45 0 .82-.37.82-.82s-.37-.82-.82-.82zm0 0h-.95c-.45 0-.82.37-.82.82s.37.82.82.82h.95c.45 0 .82-.37.82-.82s-.37-.82-.82-.82zm4.74 0h-.95c-.45 0-.82.37-.82.82s.37.82.82.82h.95c.46 0 .83-.37.83-.82s-.37-.82-.83-.82zm9.48 0h-4.74c-.45 0-.82.37-.82.82s.37.82.82.82h4.74c.46 0 .83-.37.83-.82s-.37-.82-.83-.82zm0 0h-4.74c-.45 0-.82.37-.82.82s.37.82.82.82h4.74c.46 0 .83-.37.83-.82s-.37-.82-.83-.82zm-9.48 0h-.95c-.45 0-.82.37-.82.82s.37.82.82.82h.95c.46 0 .83-.37.83-.82s-.37-.82-.83-.82zm-4.74 0h-.95c-.45 0-.82.37-.82.82s.37.82.82.82h.95c.45 0 .82-.37.82-.82s-.37-.82-.82-.82zm0 0h-.95c-.45 0-.82.37-.82.82s.37.82.82.82h.95c.45 0 .82-.37.82-.82s-.37-.82-.82-.82zm4.74 0h-.95c-.45 0-.82.37-.82.82s.37.82.82.82h.95c.46 0 .83-.37.83-.82s-.37-.82-.83-.82zm9.48 0h-4.74c-.45 0-.82.37-.82.82s.37.82.82.82h4.74c.46 0 .83-.37.83-.82s-.37-.82-.83-.82zm0 0h-4.74c-.45 0-.82.37-.82.82s.37.82.82.82h4.74c.46 0 .83-.37.83-.82s-.37-.82-.83-.82zm-9.48 0h-.95c-.45 0-.82.37-.82.82s.37.82.82.82h.95c.46 0 .83-.37.83-.82s-.37-.82-.83-.82zm-4.74 0h-.95c-.45 0-.82.37-.82.82s.37.82.82.82h.95c.45 0 .82-.37.82-.82s-.37-.82-.82-.82zm0 0h-.95c-.45 0-.82.37-.82.82s.37.82.82.82h.95c.45 0 .82-.37.82-.82s-.37-.82-.82-.82zm4.74 0h-.95c-.45 0-.82.37-.82.82s.37.82.82.82h.95c.46 0 .83-.37.83-.82s-.37-.82-.83-.82zm9.48 0h-4.74c-.45 0-.82.37-.82.82s.37.82.82.82h4.74c.46 0 .83-.37.83-.82s-.37-.82-.83-.82zm0 0h-4.74c-.45 0-.82.37-.82.82s.37.82.82.82h4.74c.46 0 .83-.37.83-.82s-.37-.82-.83-.82zm-9.48 0h-.95c-.45 0-.82.37-.82.82s.37.82.82.82h.95c.46 0 .83-.37.83-.82s-.37-.82-.83-.82zm-4.74 0h-.95c-.45 0-.82.37-.82.82s.37.82.82.82h.95c.45 0 .82-.37.82-.82s-.37-.82-.82-.82zm0 0h-.95c-.45 0-.82.37-.82.82s.37.82.82.82h.95c.45 0 .82-.37.82-.82s-.37-.82-.82-.82zm4.74 0h-.95c-.45 0-.82.37-.82.82s.37.82.82.82h.95c.46 0 .83-.37.83-.82s-.37-.82-.83-.82zm9.48 0h-4.74c-.45 0-.82.37-.82.82s.37.82.82.82h4.74c.46 0 .83-.37.83-.82s-.37-.82-.83-.82zm0 0h-4.74c-.45 0-.82.37-.82.82s.37.82.82.82h4.74c.46 0 .83-.37.83-.82s-.37-.82-.83-.82zm-9.48 0h-.95c-.45 0-.82.37-.82.82s.37.82.82.82h.95c.46 0 .83-.37.83-.82s-.37-.82-.83-.82zm-4.74 0h-.95c-.45 0-.82.37-.82.82s.37.82.82.82h.95c.45 0 .82-.37.82-.82s-.37-.82-.82-.82zm0 0h-.95c-.45 0-.82.37-.82.82s.37.82.82.82h.95c.45 0 .82-.37.82-.82s-.37-.82-.82-.82zm4.74 0h-.95c-.45 0-.82.37-.82.82s.37.82.82.82h.95c.46 0 .83-.37.83-.82s-.37-.82-.83-.82zm9.48 0h-4.74c-.45 0-.82.37-.82.82s.37.82.82.82h4.74c.46 0 .83-.37.83-.82s-.37-.82-.83-.82zm0 0h-4.74c-.45 0-.82.37-.82.82s.37.82.82.82h4.74c.46 0 .83-.37.83-.82s-.37-.82-.83-.82zm-9.48 0h-.95c-.45 0-.82.37-.82.82s.37.82.82.82h.95c.46 0 .83-.37.83-.82s-.37-.82-.83-.82zm-4.74 0h-.95c-.45 0-.82.37-.82.82s.37.82.82.82h.95c.45 0 .82-.37.82-.82s-.37-.82-.82-.82zm0 0h-.95c-.45 0-.82.37-.82.82s.37.82.82.82h.95c.45 0 .82-.37.82-.82s-.37-.82-.82-.82zm4.74 0h-.95c-.45 0-.82.37-.82.82s.37.82.82.82h.95c.46 0 .83-.37.83-.82s-.37-.82-.83-.82zm9.48 0h-4.74c-.45 0-.82.37-.82.82s.37.82.82.82h4.74c.46 0 .83-.37.83-.82s-.37-.82-.83-.82zm0 0h-4.74c-.45 0-.82.37-.82.82s.37.82.82.82h4.74c.46 0 .83-.37.83-.82s-.37-.82-.83-.82zm-9.48 0h-.95c-.45 0-.82.37-.82.82s.37.82.82.82h.95c.46 0 .83-.37.83-.82s-.37-.82-.83-.82zm-4.74 0h-.95c-.45 0-.82.37-.82.82s.37.82.82.82h.95c.45 0 .82-.37.82-.82s-.37-.82-.82-.82zm7.11-5.69h-1c-.45 0-.82.37-.82.82s.37.82.82.82h1c.46 0 .83-.37.83-.82s-.37-.82-.83-.82zm3.17-2.03c-.88-1.12-2.21-1.77-3.64-1.77s-2.75.65-3.63 1.78c-.14.17-.2.38-.17.6.03.22.14.41.31.55.36.28.87.22 1.16-.14.56-.72 1.41-1.14 2.33-1.14s1.78.42 2.34 1.14c.28.36.8.42 1.16.14.35-.28.42-.8.14-1.16zm3.34-1.84c-1.57-2.33-4.18-3.72-6.98-3.72s-5.4 1.39-6.97 3.72c-.12.18-.17.4-.13.62a.828.828 0 001.49.3c1.26-1.87 3.36-2.99 5.61-2.99s4.35 1.12 5.61 2.99c.13.18.31.3.53.35.22.04.44-.01.62-.13s.3-.31.34-.52c.05-.22 0-.44-.12-.62zm19.57-13.2H45.17c-.45 0-.82.37-.82.82v7.59c0 .45.37.82.82.82h4.87v2.15h-2.02c-.46 0-.82.37-.82.82s.36.82.82.82h5.69c.45 0 .82-.36.82-.82s-.37-.82-.82-.82h-2.02v-2.15h4.86c.46 0 .83-.37.83-.82V3.45c0-.45-.37-.82-.83-.82zm-.82 7.58H46V4.27h9.73v5.94zm-40.9-7.58H3.45c-.45 0-.82.37-.82.82v7.59c0 .45.37.82.82.82h4.87v2.15H6.29c-.45 0-.82.37-.82.82s.37.82.82.82h5.69a.82.82 0 100-1.64H9.96v-2.15h4.87c.45 0 .82-.37.82-.82V3.45c0-.45-.37-.82-.82-.82zm-.82 7.58H4.27V4.27h9.74v5.94z" fill="#399d34" fill-rule="evenodd"/></svg>