<svg xmlns="http://www.w3.org/2000/svg" id="uuid-30ea9163-fb09-4074-8eed-1b4911894424" viewBox="0 0 60 60"><path d="M15.08 24.88h29.84c.37 0 .67-.3.67-.67V6.5c0-.37-.3-.67-.67-.67H15.08c-.37 0-.67.3-.67.67v17.71c0 .37.3.67.67.67zm.67-17.71h28.5v16.37h-28.5V7.17zm38 25.43v9.22c0 .47.14.91.35 1.29h-6.95c-3.47.11-3.47 5.14 0 5.25h4.73v5.15h-2.31c-.83 0-1.5.62-1.5 1.38V56a.67.67 0 001.34 0v-1.08c-.05-.13 2.41-.04 2.48-.06v1.15a.67.67 0 001.34 0v-1.15c.06.02 2.51-.04 2.48.04v1.11a.67.67 0 001.34 0V54.9c0-.76-.67-1.38-1.5-1.38h-2.31v-5.15h3.16c1.45 0 2.63-1.18 2.63-2.63V32.6c-.11-3.47-5.14-3.48-5.25 0zm3.92 13.14c0 .71-.58 1.29-1.29 1.29h-9.22c-1.7-.03-1.7-2.55 0-2.58h10.52v1.29zm0-2.62h-1.29c-.71 0-1.29-.58-1.29-1.29v-9.22c.03-1.7 2.55-1.7 2.58 0v10.52zM14.28 27.39h31.44c1.31 0 2.38-1.07 2.38-2.38V5.7c0-1.31-1.07-2.38-2.38-2.38H14.28c-1.31 0-2.38 1.07-2.38 2.38v19.32c0 1.31 1.07 2.37 2.38 2.37zM13.24 5.7c0-.57.47-1.04 1.04-1.04h31.44c.57 0 1.04.47 1.04 1.04v19.32c0 .57-.47 1.04-1.04 1.04H14.28c-.57 0-1.04-.47-1.04-1.04V5.7zm32.18 36.1v-1.22h2.01c.37 0 .67-.3.67-.67v-2.95c0-.37-.3-.67-.67-.67H36.08v-2.32c0-2.21-1.8-4.01-4.01-4.01h-4.13c-2.21 0-4.01 1.8-4.01 4.01v2.32H12.57c-.37 0-.67.3-.67.67v2.95c0 .37.3.67.67.67h2.02v1.22c0 .37.3.67.67.67h1.01v13.28a.67.67 0 001.34 0V42.47h6.32c-.02.34.05.69.2.98-2.35 1.25-1.43 4.93 1.26 4.92h3.95v5.15h-2.31c-.83 0-1.5.62-1.5 1.38v1.11a.67.67 0 001.34 0v-1.08c-.05-.13 2.41-.04 2.48-.06v1.15a.67.67 0 001.34 0v-1.15c.07.02 2.5-.04 2.48.04v1.11a.67.67 0 001.34 0v-1.11c0-.76-.67-1.38-1.5-1.38H30.7v-5.15h3.95c2.69.02 3.61-3.66 1.26-4.92.16-.29.22-.64.2-.98h6.32v13.28a.67.67 0 001.34 0V42.48h1.01c.37 0 .67-.3.67-.67zm-21.5-.66h-8.01v-.55h8.01v.55zm0-1.89H13.23v-1.62h10.69v1.62zm1.34-5.27c0-1.48 1.2-2.68 2.68-2.68h4.13c1.48 0 2.68 1.2 2.68 2.68v8.65c0 .26-.21.47-.47.48h-8.55c-.26 0-.47-.22-.47-.48v-8.65zm9.35 13.05h-9.22c-1.93-.15-1.58-2.85.35-2.58h8.87c1.69.03 1.7 2.55 0 2.58zm1.47-9.39h10.68v1.62H36.08v-1.62zm8 3.49h-8v-.55h8.01v.55zm-31.23 1.98H5.9c.22-.38.35-.82.35-1.29V32.6c-.11-3.47-5.15-3.47-5.26 0v13.15c0 1.45 1.18 2.63 2.63 2.63h3.16v5.15H4.47c-.83 0-1.5.62-1.5 1.38v1.11a.67.67 0 001.34 0v-1.08c-.05-.13 2.41-.04 2.48-.06v1.15a.67.67 0 001.34 0v-1.15c.07.02 2.5-.04 2.48.04v1.11a.67.67 0 001.34 0v-1.11c0-.76-.67-1.38-1.5-1.38H8.14v-5.15h4.73c3.47-.11 3.47-5.14 0-5.25zM2.33 32.6c.03-1.7 2.55-1.7 2.58 0v9.22c0 .71-.58 1.29-1.29 1.29H2.33V32.59zm10.52 14.43H3.63c-.71 0-1.29-.58-1.29-1.29v-1.29h10.52c.71 0 1.29.58 1.29 1.29 0 .71-.58 1.29-1.29 1.29z" fill="#399d34"/></svg>