<svg xmlns="http://www.w3.org/2000/svg" id="uuid-58acb494-4a44-41d8-b5a1-b516b173f54a" viewBox="0 0 60 60"><g id="uuid-3f850cfb-1b07-4ab7-841d-5918c3ff29f5"><path d="M56.88 28.18l-.25-1.92-.37-1.86-.51-1.86-.64-1.81-.75-1.77-.88-1.7-.99-1.64-1.1-1.57-1.22-1.5-1.29-1.38-1.42-1.33-1.51-1.23-1.57-1.1-1.64-1-1.73-.88-1.77-.76-1.83-.63-1.86-.51-1.9-.38-1.92-.24L29.9 3l-1.93.02c-.3 0-.59.12-.8.34-.21.21-.32.49-.32.79.01.3.12.58.33.79s.51.33.81.33l1.8-.02 1.77.1 1.76.23 1.74.35 1.71.47 1.68.58 1.63.7 1.57.81 1.52.92 1.46 1.03L46 11.56l1.3 1.21 1.2 1.29 1.11 1.37 1.01 1.45.91 1.5.81 1.58.69 1.62.58 1.66.47 1.7.34 1.73.23 1.75.1 1.76-.02 1.82c-.02.33.08.61.28.84.2.22.48.36.78.38.29.02.59-.09.81-.29.23-.19.36-.47.38-.77v-.11l.02-1.87-.12-2zm-9.89-1.01l-.14-1.07-.22-1.07-.28-1.05-.37-1.02-.42-1-.5-.97-.56-.93-.63-.88-.69-.85-.73-.78-.81-.75-.85-.69-.89-.63-.95-.57-.97-.49-1-.43-1.04-.36-1.04-.28-1.09-.22-1.08-.13-1-.06h-1.09c-.3.01-.58.13-.79.35-.21.21-.33.5-.32.8 0 .61.51 1.11 1.12 1.11h.97l.94.05.93.11.92.19.9.24.89.31.86.37.83.43.8.48.77.54.73.6.68.63.64.68.58.73.54.76.48.79.42.83.37.86.31.88.24.9.19.91.12.93.05.92v.99c-.01.62.49 1.13 1.11 1.14h.01c.61 0 1.12-.5 1.12-1.12v-1.11l-.06-1.07zm3.95 16.09l-6.35-6.34c-1.4-1.4-3.39-2.02-5.41-1.62-1.18.24-2.24.88-3.1 1.73l-3.7 3.7-.35-.31a114.46 114.46 0 01-6.47-6c-2.18-2.18-4.19-4.35-5.99-6.46l-.3-.35 3.79-3.81a5.96 5.96 0 00.01-8.41l-6.35-6.34a5.953 5.953 0 00-8.4.01c-.86.86-2.87 2.85-2.97 2.94-6.27 6.27.81 20.87 11.29 31.35 5.43 5.43 11.8 9.81 17.46 12.03 4.32 1.68 10.24 2.92 13.92-.77l2.24-2.26c.55-.56 1.07-1.16 1.48-1.84 1.6-2.7 1.22-5.21-.81-7.24zm-2.02 7.25l-2.28 2.31c-1.12 1.12-2.99 1.88-5.07 1.88-1.91 0-4.16-.48-6.64-1.42-5.39-2.07-11.32-6.16-16.69-11.53C6.06 29.57 2.61 18 6.68 13.94c0-.01 1.12-1.58 2.87-2.92 1.57-1.21 4.08-1.81 5.52-.43l6.45 6.44c1.39 1.45 1.37 3.77-.04 5.18l-3.47 3.48c-1.01 1-1.07 2.64-.15 3.73 1.86 2.17 3.92 4.39 6.12 6.59 2.17 2.18 4.39 4.23 6.58 6.11 1.09.94 2.74.88 3.75-.13l3.48-3.49c.7-.69 1.62-1.07 2.6-1.07s1.91.38 2.6 1.07l6.41 6.4c1.38 1.44.93 4.2-.48 5.61z" fill="#399d34" id="uuid-0ada168a-0844-44ec-9e3d-ab0278ed9d68"/></g></svg>