<svg xmlns="http://www.w3.org/2000/svg" id="Ebene_2" data-name="Ebene 2" viewBox="0 0 36.81 56.67"><path d="M15.22 49.46H1.91c-.51 0-.99-.23-1.35-.65C.2 48.4 0 47.83 0 47.25V2.21C0 1.62.2 1.06.56.65.92.24 1.4 0 1.91 0h33c.51 0 .99.23 1.35.65.36.42.56.98.56 1.56v45.04c0 .59-.2 1.15-.56 1.56-.36.41-.84.65-1.35.65H21.65V52h3.1c.65 0 1.27.3 1.73.83.47.53.72 1.25.72 2.01v1.08c0 .69-.64.75-.64.75H10.22a.622.622 0 01-.52-.36.478.478 0 01-.06-.18v-.03s-.03-.1-.03-.16v-1.09c0-.75.27-1.48.72-2.01s1.08-.83 1.73-.83h3.15v-2.54zm10.72 5.73H10.88v-.36c0-.36.13-.71.34-.96.23-.26.52-.4.84-.4h12.69c.32 0 .61.14.84.4.22.26.34.6.34.96v.36zm-9.44-5.73V52h3.89v-2.54H16.5zM35.54 2.21v45.05c0 .2-.06.38-.19.52-.11.14-.28.22-.44.22h-33c-.17 0-.33-.08-.44-.22a.76.76 0 01-.19-.52V2.21c0-.19.06-.38.19-.52.11-.14.28-.22.44-.22h33c.17 0 .33.08.44.22.13.14.19.33.19.52zm-1.4 1.57c0-.41-.28-.74-.64-.74H3.31c-.36 0-.64.33-.64.74v41.91c0 .41.28.74.64.74h30.2c.36 0 .64-.33.64-.74V3.78zm-1.27.74v40.43H3.94V4.51h28.93z" fill="#399d34" fill-rule="evenodd" id="Ebene_1-2" data-name="Ebene 1"/></svg>