<svg xmlns="http://www.w3.org/2000/svg" id="uuid-74ef180a-3d1f-42a8-97eb-bf44d63a9f41" viewBox="0 0 60 60"><defs><style>.uuid-6df4d4cb-633b-4426-bf12-a33260858a43{fill:#399d34}</style></defs><g id="uuid-496b95a2-69a1-4d6f-8ef2-267f94277ad6"><g id="uuid-1277d82f-ca4f-4550-a56c-572be88c1832"><path id="uuid-7af134b3-b387-4206-86a6-08f80b65f9ba" class="uuid-6df4d4cb-633b-4426-bf12-a33260858a43" d="M16.43 43.08c-.46.05-.76.41-.76.86.05.41.35.71.76.76.46-.05.76-.41.76-.86-.05-.46-.35-.76-.76-.76z"/><path id="uuid-12d9ea90-2b5e-4911-ba99-ac9892444072" class="uuid-6df4d4cb-633b-4426-bf12-a33260858a43" d="M18.05 2.92c-.3-.3-.81-.3-1.16 0a7.357 7.357 0 000 10.43c.3.35.81.35 1.16.05.35-.3.35-.81.05-1.16l-.05-.05c-2.23-2.23-2.23-5.87 0-8.15.3-.3.3-.81 0-1.11z"/><path id="uuid-ff38e565-c2a6-4b99-8bc2-b053ce110939" class="uuid-6df4d4cb-633b-4426-bf12-a33260858a43" d="M21.04 5.7c0-.46-.35-.81-.81-.81-.2 0-.41.1-.56.25a4.255 4.255 0 000 6.03c.15.15.35.25.56.25.46 0 .81-.35.81-.81 0-.2-.1-.41-.25-.56-1.01-1.01-1.01-2.68 0-3.75.2-.2.25-.41.25-.61z"/><path id="uuid-0b68612b-3c66-4aa5-83ce-b861615dae05" class="uuid-6df4d4cb-633b-4426-bf12-a33260858a43" d="M41.75 13.35c.3.3.81.3 1.16 0a7.357 7.357 0 000-10.43c-.3-.3-.81-.3-1.16 0-.3.3-.3.81 0 1.16 2.23 2.23 2.23 5.87 0 8.15-.3.25-.3.76 0 1.11 0-.05 0 0 0 0z"/><path id="uuid-15a91de1-97c8-4b43-85c9-e59f7d9fa95d" class="uuid-6df4d4cb-633b-4426-bf12-a33260858a43" d="M38.96 11.12c1.32 1.11 2.48-2.03 2.38-3.04.05-1.01-.71-3.14-1.82-3.24-.46 0-.81.35-.81.81 0 .2.1.41.25.56.51.51.76 1.16.76 1.87s-.25 1.37-.76 1.87c-.3.35-.3.86 0 1.16z"/><path id="uuid-12f7ae20-6e94-492c-8717-df1dd8a1b15b" class="uuid-6df4d4cb-633b-4426-bf12-a33260858a43" d="M7.67 57.31h44.67c2.84 0 5.17-2.33 5.17-5.17v-32c0-2.84-2.33-5.17-5.17-5.17H36.89l-.46-2.48c-.05-.3-.3-.56-.61-.66.05-1.67 0-3.95-.35-5.27-.2-.96-1.06-1.62-2.03-1.62H26.3c-.96 0-1.82.66-2.03 1.62-.35 1.37-.41 3.65-.35 5.27-.3.05-.56.35-.61.66l-.46 2.48H7.67c-2.84 0-5.17 2.33-5.17 5.17v32.01c0 2.84 2.33 5.17 5.17 5.17zm44.71-1.57H7.67c-1.98 0-3.55-1.62-3.55-3.55v-1.62h5.27c3.14 4.81 10.89 4.81 14.08 0h32.51v1.62c-.05 1.92-1.62 3.49-3.6 3.55zM30.25 11.83h-.76v-1.77c0-.2.15-.41.35-.41s.41.15.41.35v1.82zm-4.71-1.52c0-1.11.1-2.28.35-3.39.05-.2.25-.35.46-.35h7.14c.2 0 .41.15.46.35.25.71.35 3.49.35 4.91h-2.43v-1.77c0-1.11-.91-1.98-1.98-1.98s-1.98.91-1.98 1.98v1.77h-2.38v-1.52zm-.76 3.14h10.23l.25 1.52H24.52l.25-1.52zM7.67 16.59h44.67c1.98 0 3.55 1.62 3.55 3.55v28.77H22.96c-.25 0-.56.15-.71.35-2.03 3.24-6.33 4.25-9.57 2.23a6.79 6.79 0 01-2.23-2.23c-.15-.25-.41-.41-.71-.35H4.12V20.14c0-1.98 1.57-3.55 3.55-3.55z"/><path id="uuid-9c3f464d-6a28-4ebc-a38b-ae9e5c32e845" class="uuid-6df4d4cb-633b-4426-bf12-a33260858a43" d="M33.44 25.76c3.8-.1 3.8-5.67 0-5.77-3.8.1-3.8 5.67 0 5.77zm0-4.15c.71 0 1.27.61 1.27 1.32 0 .66-.56 1.22-1.27 1.27-.71 0-1.27-.61-1.27-1.32.05-.71.61-1.27 1.27-1.27z"/><path id="uuid-520a93cf-8093-4c94-8397-cd3b20efc8af" class="uuid-6df4d4cb-633b-4426-bf12-a33260858a43" d="M40.89 25.76c3.8-.1 3.8-5.67 0-5.77-3.8.1-3.8 5.67 0 5.77zm0-4.15c.71 0 1.27.61 1.27 1.32 0 .66-.56 1.22-1.27 1.27-.71 0-1.27-.61-1.27-1.32.05-.71.61-1.27 1.27-1.27z"/><path id="uuid-2bbe48ec-4cba-4ea7-bc0f-d3d79b838980" class="uuid-6df4d4cb-633b-4426-bf12-a33260858a43" d="M48.38 25.76c3.8-.1 3.8-5.67 0-5.77-3.8.1-3.8 5.67 0 5.77zm0-4.15c.71 0 1.27.61 1.27 1.32 0 .66-.56 1.22-1.27 1.27-.71 0-1.27-.61-1.27-1.32s.56-1.27 1.27-1.27z"/><path id="uuid-e1cce835-fe3f-479f-9615-54862099d9d1" class="uuid-6df4d4cb-633b-4426-bf12-a33260858a43" d="M33.44 33.71c3.8-.1 3.8-5.67 0-5.77-3.8.1-3.8 5.67 0 5.77zm0-4.15c.71 0 1.27.61 1.27 1.32 0 .66-.56 1.22-1.27 1.27-.71 0-1.27-.61-1.27-1.32.05-.71.61-1.27 1.27-1.27z"/><path id="uuid-0696fb32-cabc-4fab-81bf-da4ca6a36b9a" class="uuid-6df4d4cb-633b-4426-bf12-a33260858a43" d="M40.89 33.71c3.8-.1 3.8-5.67 0-5.77-3.8.1-3.8 5.67 0 5.77zm0-4.15c.71 0 1.27.61 1.27 1.32 0 .66-.56 1.22-1.27 1.27-.71 0-1.27-.61-1.27-1.32.05-.71.61-1.27 1.27-1.27z"/><path id="uuid-efc0a97e-6bb3-4cb0-bb5d-3b9a185498e5" class="uuid-6df4d4cb-633b-4426-bf12-a33260858a43" d="M48.38 33.71c3.8-.1 3.8-5.67 0-5.77-3.8.1-3.8 5.67 0 5.77zm0-4.15c.71 0 1.27.61 1.27 1.32 0 .66-.56 1.22-1.27 1.27-.71 0-1.27-.61-1.27-1.32s.56-1.27 1.27-1.27z"/><path id="uuid-827370da-8a06-4f7c-a5a5-350e0549bdc1" class="uuid-6df4d4cb-633b-4426-bf12-a33260858a43" d="M33.44 41.66c3.8-.1 3.8-5.67 0-5.77-3.8.1-3.8 5.67 0 5.77zm0-4.15c.71 0 1.27.61 1.27 1.32 0 .66-.56 1.22-1.27 1.27-.71 0-1.27-.61-1.27-1.32.05-.71.61-1.27 1.27-1.27z"/><path id="uuid-bf16b9d2-e55a-401f-ac59-9fd0d5323710" class="uuid-6df4d4cb-633b-4426-bf12-a33260858a43" d="M16.43 40.7c-6.48.15-6.48 9.62 0 9.83 6.48-.2 6.48-9.67 0-9.83zm0 8.2c-4.36-.1-4.36-6.48 0-6.58 4.36.1 4.36 6.48 0 6.58z"/><path id="uuid-90f40100-e57c-406b-8834-e398f58f2b47" class="uuid-6df4d4cb-633b-4426-bf12-a33260858a43" d="M40.89 41.66c3.8-.1 3.8-5.67 0-5.77-3.8.1-3.8 5.67 0 5.77zm0-4.15c.71 0 1.27.61 1.27 1.32 0 .66-.56 1.22-1.27 1.27-.71 0-1.27-.61-1.27-1.32.05-.71.61-1.27 1.27-1.27z"/><path id="uuid-66e9a66b-124c-440a-b4f0-807649f5bb2d" class="uuid-6df4d4cb-633b-4426-bf12-a33260858a43" d="M48.38 41.66c3.8-.1 3.8-5.67 0-5.77-3.8.1-3.8 5.67 0 5.77zm0-4.15c.71 0 1.27.61 1.27 1.32 0 .66-.56 1.22-1.27 1.27-.71 0-1.27-.61-1.27-1.32s.56-1.27 1.27-1.27z"/></g><path class="uuid-6df4d4cb-633b-4426-bf12-a33260858a43" d="M25.49 18.87H7.36c-.46 0-.81.35-.81.81v18.13c0 .46.35.81.81.81h18.13c.46 0 .81-.35.81-.81V19.68c0-.46-.35-.81-.81-.81zm-.71 17.73c0 .3-.2.51-.51.51H8.57c-.3 0-.51-.2-.51-.51V20.9c0-.3.2-.51.51-.51h15.7c.3 0 .51.2.51.51v15.7z"/></g></svg>