<svg xmlns="http://www.w3.org/2000/svg" id="uuid-7b6c7fcc-bf76-4658-86a9-b4ce49351450" viewBox="0 0 60 60"><defs><style>.uuid-df2e012c-72f5-44c9-8d81-7a9f45704ead{fill:#399d34}</style></defs><g id="uuid-e8ea112d-bf41-4f15-9649-43809f388b4a"><g id="uuid-3de7a8f3-b9cd-4f2e-b29c-385806a5766d"><path id="uuid-d6ba9316-51ad-49f8-b408-308489027104" class="uuid-df2e012c-72f5-44c9-8d81-7a9f45704ead" d="M47.71 7.99h-8.86v-.58c0-1.45-1.17-2.62-2.62-2.62h-2.35a3.94 3.94 0 00-4.54-3.23 3.953 3.953 0 00-3.23 3.23h-2.35c-1.45 0-2.62 1.17-2.62 2.62v.58h-8.86c-1.45 0-2.62 1.17-2.62 2.62v45.27c0 1.45 1.17 2.62 2.62 2.62h35.43c1.45 0 2.62-1.17 2.62-2.62V10.61c0-1.45-1.17-2.62-2.62-2.62zM22.46 9.3V7.41c0-.72.59-1.31 1.31-1.31h3.61v-.66a2.625 2.625 0 115.25-.07v.73h3.61c.72 0 1.31.59 1.31 1.31v2.62c0 .72-.59 1.31-1.31 1.31H23.78c-.72 0-1.31-.59-1.31-1.31v-.74zm26.56 46.58c0 .72-.59 1.31-1.31 1.31H12.29c-.72 0-1.31-.59-1.31-1.31V10.61c0-.72.59-1.31 1.31-1.31h8.86v.74c0 1.45 1.17 2.62 2.62 2.62h12.46c1.45 0 2.62-1.17 2.62-2.62V9.3h8.86c.72 0 1.31.59 1.31 1.31v45.27z"/><path id="uuid-53c8a5f7-1830-4abd-aef9-9bd9e76a5500" class="uuid-df2e012c-72f5-44c9-8d81-7a9f45704ead" d="M44.97 13.78H15.03c-1.45 0-2.62 1.17-2.62 2.62v11.53c0 1.45 1.17 2.62 2.62 2.62h29.94c1.45 0 2.62-1.17 2.62-2.62V16.4c0-1.45-1.17-2.62-2.62-2.62zm1.31 14.15c0 .72-.59 1.31-1.31 1.31H15.03c-.72 0-1.31-.59-1.31-1.31V16.4c0-.72.59-1.31 1.31-1.31h29.93c.72 0 1.31.59 1.31 1.31v11.53z"/><path id="uuid-4cd9d877-de1c-41b7-8690-e461cdf4ec99" class="uuid-df2e012c-72f5-44c9-8d81-7a9f45704ead" d="M43.42 20.52c-.46 0-.89.19-1.2.53l-4.94-2.67c.07-.18.1-.36.1-.55-.02-.91-.76-1.63-1.67-1.61-.88.02-1.6.73-1.61 1.61 0 .47.2.91.56 1.22l-2.74 4.47c-.48-.27-1.06-.27-1.54 0l-2.49-3.02c.62-.65.6-1.69-.05-2.31-.65-.62-1.69-.6-2.31.05-.29.31-.45.71-.45 1.13 0 .25.06.49.17.71l-6.08 4.64c-.68-.59-1.71-.51-2.3.18s-.51 1.71.18 2.3c.68.59 1.71.51 2.3-.18.25-.3.39-.68.39-1.07 0-.25-.06-.49-.17-.71l6.08-4.64c.3.26.68.4 1.07.41.22 0 .44-.04.64-.13l2.53 3.06a1.635 1.635 0 001.26 2.67c.91 0 1.65-.72 1.65-1.63 0-.37-.12-.74-.35-1.03l2.8-4.57a1.592 1.592 0 001.71-.44l4.94 2.67c-.06.17-.1.36-.1.54 0 .91.73 1.64 1.64 1.64s1.64-.73 1.64-1.64-.73-1.64-1.64-1.64zm-25.34 5.75c-.18 0-.33-.15-.33-.33 0-.18.15-.33.33-.33s.33.15.33.33c0 .18-.14.33-.32.33zm8.61-6.58c-.18 0-.33-.15-.33-.33s.15-.33.33-.33.33.15.33.33c0 .18-.14.33-.32.33zm4.45 5.6c-.18 0-.33-.15-.33-.33s.15-.33.33-.33.33.15.33.33c0 .18-.14.33-.32.33zm4.6-7.12c-.18 0-.33-.15-.33-.33s.15-.33.33-.33.33.15.33.33c0 .18-.14.33-.32.33zm7.68 4.32c-.18 0-.33-.15-.33-.33s.15-.33.33-.33c.18 0 .33.15.33.33 0 .18-.14.33-.32.33z"/><path id="uuid-6e492e58-86d9-4f56-a9f7-d8f542bc3de6" class="uuid-df2e012c-72f5-44c9-8d81-7a9f45704ead" d="M44.97 32.38H31.06c-1.45 0-2.62 1.17-2.62 2.62v18.06c0 1.45 1.17 2.62 2.62 2.62h13.92c1.45 0 2.62-1.17 2.62-2.62V35c0-1.45-1.17-2.62-2.62-2.62zm1.31 20.68c0 .72-.59 1.31-1.31 1.31H31.06c-.72 0-1.31-.59-1.31-1.31V35c0-.72.59-1.31 1.31-1.31h13.91c.72 0 1.31.59 1.31 1.31v18.06z"/><path id="uuid-a6498586-a4d0-42e3-bfb5-b0a612238920" class="uuid-df2e012c-72f5-44c9-8d81-7a9f45704ead" d="M31.35 53.53h3.28V42.38h-3.28v11.15zm1.31-9.84h.66v8.53h-.66v-8.53z"/><path id="uuid-3c148ffb-947e-4649-aa7d-649d4b14a922" class="uuid-df2e012c-72f5-44c9-8d81-7a9f45704ead" d="M36.37 53.53h3.28v-7.87h-3.28v7.87zm1.31-6.56h.66v5.25h-.66v-5.25z"/><path id="uuid-d15ffbb4-f8a5-471a-9fef-79c832aa7000" class="uuid-df2e012c-72f5-44c9-8d81-7a9f45704ead" d="M41.39 53.53h3.28V35.82h-3.28v17.71zm1.31-16.4h.66v15.09h-.66V37.13z"/><path id="uuid-6e6c334e-6749-4bc1-ae52-19c96e874c1c" class="uuid-df2e012c-72f5-44c9-8d81-7a9f45704ead" d="M26.04 49.98H13.06c-.36 0-.66.29-.66.66s.29.66.66.66h12.98c.36 0 .66-.29.66-.66s-.29-.66-.66-.66z"/><path id="uuid-0989acfc-52ab-47dd-bc2f-b8fa6fefe3a5" class="uuid-df2e012c-72f5-44c9-8d81-7a9f45704ead" d="M26.04 54.37H13.06c-.36 0-.66.29-.66.66s.29.66.66.66h12.98c.36 0 .66-.29.66-.66s-.29-.66-.66-.66z"/><path id="uuid-138168a9-2204-46c0-a5d2-bc8b0f762c61" class="uuid-df2e012c-72f5-44c9-8d81-7a9f45704ead" d="M26.04 41.19H13.06c-.36 0-.66.29-.66.66s.29.66.66.66h12.98c.36 0 .66-.29.66-.66s-.29-.66-.66-.66z"/><path id="uuid-2d177686-53e7-40a5-aeba-081e7743983b" class="uuid-df2e012c-72f5-44c9-8d81-7a9f45704ead" d="M26.04 45.59H13.06c-.36 0-.66.29-.66.66s.29.66.66.66h12.98c.36 0 .66-.29.66-.66s-.29-.66-.66-.66z"/><path id="uuid-d57676e6-7fab-4f6d-a5eb-3b6676ed67e8" class="uuid-df2e012c-72f5-44c9-8d81-7a9f45704ead" d="M26.04 32.41H13.06c-.36 0-.66.29-.66.66s.29.66.66.66h12.98c.36 0 .66-.29.66-.66s-.29-.66-.66-.66z"/><path id="uuid-212ab1a3-ada8-4151-9bf7-40db4472ce99" class="uuid-df2e012c-72f5-44c9-8d81-7a9f45704ead" d="M26.04 36.8H13.06c-.36 0-.66.29-.66.66s.29.66.66.66h12.98c.36 0 .66-.29.66-.66s-.29-.66-.66-.66z"/></g></g></svg>