<svg xmlns="http://www.w3.org/2000/svg" id="uuid-fa6f3c23-0de8-4297-a820-29da302630e0" viewBox="0 0 60 60"><defs><style>.uuid-b0159c63-537f-49a8-8b14-c8f20e6ebf83{fill:#399d34}</style></defs><path class="uuid-b0159c63-537f-49a8-8b14-c8f20e6ebf83" d="M50.62 2.21H10.23c-3.8 0-6.88 3.09-6.88 6.89v40.38c0 3.8 3.09 6.89 6.88 6.89h40.38c3.8 0 6.89-3.09 6.89-6.89V9.1c0-3.8-3.09-6.89-6.89-6.89zm4.88 47.27c0 2.69-2.19 4.89-4.89 4.89H10.23c-2.69 0-4.88-2.19-4.88-4.89V9.1c0-2.69 2.19-4.89 4.88-4.89h40.38c2.69 0 4.89 2.19 4.89 4.89v40.38z"/><path class="uuid-b0159c63-537f-49a8-8b14-c8f20e6ebf83" d="M30.43 13.5c-8.71 0-15.79 7.08-15.79 15.79s7.08 15.79 15.79 15.79S46.22 38 46.22 29.29 39.14 13.5 30.43 13.5zm0 29.58c-7.6 0-13.79-6.19-13.79-13.79S22.83 15.5 30.43 15.5s13.79 6.19 13.79 13.79-6.19 13.79-13.79 13.79z"/><path class="uuid-b0159c63-537f-49a8-8b14-c8f20e6ebf83" d="M25.38 27.35a1.92 1.92 0 10.001 3.841 1.92 1.92 0 00-.001-3.841zm10.09 0a1.92 1.92 0 10.001 3.841 1.92 1.92 0 00-.001-3.841z"/></svg>